<svg width="22" height="20" viewBox="0 0 22 20" fill="none" xmlns="http://www.w3.org/2000/svg">
<path fill-rule="evenodd" clip-rule="evenodd" d="M1.641 6.22258L16.9725 2.73702L16.7601 1.79758C16.7011 1.53018 16.432 1.36218 16.1676 1.42133L1.79914 4.66555C1.5324 4.72472 1.3648 4.99212 1.42379 5.25951C1.49696 5.57894 1.5678 5.90314 1.641 6.22258ZM1.51352 3.81369L16.0638 0.531606C16.7577 0.375443 17.4493 0.813191 17.6052 1.5089L19.1301 8.26472H18.2189L17.5273 5.20508L2.19568 8.69066L3.14462 12.8861L3.2296 13.2577C3.26264 13.4067 3.41136 13.5037 3.56243 13.4682L3.67571 13.4422V14.3367L3.65919 14.3416C3.08324 14.4718 2.50964 14.105 2.37745 13.53L0.533885 5.36146C0.455976 5.0136 0.512649 4.68707 0.701481 4.38419C0.890313 4.08129 1.16651 3.89197 1.51348 3.81388L1.51352 3.81369ZM5.29033 8.50844C4.57983 8.50844 4.00148 9.09057 4.00148 9.80284V18.208C4.00148 18.9202 4.57983 19.5 5.29033 19.5H20.2088C20.9193 19.5 21.5 18.9179 21.5 18.208V9.80284C21.5 9.09057 20.9193 8.50844 20.2088 8.50844H5.29033ZM19.8949 12.2709C19.8949 11.7006 19.8949 11.1303 19.8949 10.56C19.8949 10.4488 19.8075 10.3613 19.6966 10.3613C18.4243 10.3613 17.1519 10.3613 15.8796 10.3613C15.771 10.3613 15.6813 10.4512 15.6813 10.56C15.6813 11.1303 15.6813 11.7006 15.6813 12.2709C15.6813 12.3798 15.771 12.4697 15.8796 12.4697C17.1519 12.4697 18.4243 12.4697 19.6966 12.4697C19.8028 12.4697 19.8949 12.3821 19.8949 12.2709ZM17.0811 17.4579C16.9702 17.4579 16.8805 17.3679 16.8805 17.2591V16.8616C16.8805 16.7527 16.9702 16.6628 17.0811 16.6628H19.6942C19.8028 16.6628 19.8925 16.7527 19.8925 16.8616V17.2591C19.8925 17.3679 19.8028 17.4579 19.6942 17.4579H17.0811ZM13.4341 17.4579C13.3255 17.4579 13.2358 17.3679 13.2358 17.2591V16.8639C13.2358 16.7527 13.3255 16.6652 13.4341 16.6652H16.0496C16.1581 16.6652 16.2479 16.7551 16.2479 16.8639V17.2591C16.2479 17.3679 16.1581 17.4579 16.0496 17.4579H13.4341ZM9.78945 17.4579C9.68088 17.4579 9.59119 17.3679 9.59119 17.2591V16.8639C9.59119 16.7527 9.68088 16.6652 9.78945 16.6652H12.405C12.5135 16.6652 12.6032 16.7551 12.6032 16.8639V17.2591C12.6032 17.3679 12.5135 17.4579 12.405 17.4579H9.78945ZM6.14483 17.4579C6.03627 17.4579 5.94654 17.3679 5.94654 17.2591V16.8639C5.94654 16.7527 6.03627 16.6652 6.14483 16.6652H8.76031C8.86888 16.6652 8.95857 16.7551 8.95857 16.8639V17.2591C8.95857 17.3679 8.86888 17.4579 8.76031 17.4579H6.14483Z" fill="#034C31"/>
</svg>
