<svg width="24" height="24" viewBox="0 0 24 24" fill="none" xmlns="http://www.w3.org/2000/svg">
<path d="M21 4.00195C19.89 3.65195 18.67 3.50195 17.5 3.50195C15.55 3.50195 13.45 3.90195 12 5.00195C10.55 3.90195 8.45 3.50195 6.5 3.50195C4.55 3.50195 2.45 3.90195 1 5.00195V19.652C1 19.902 1.25 20.152 1.5 20.152C1.6 20.152 1.65 20.102 1.75 20.102C3.1 19.452 5.05 19.002 6.5 19.002C8.45 19.002 10.55 19.402 12 20.502C13.35 19.652 15.8 19.002 17.5 19.002C19.15 19.002 20.85 19.302 22.25 20.052C22.35 20.102 22.4 20.102 22.5 20.102C22.75 20.102 23 19.852 23 19.602V5.00195C22.4 4.55195 21.75 4.25195 21 4.00195ZM21 17.502C19.9 17.152 18.7 17.002 17.5 17.002C15.8 17.002 13.35 17.652 12 18.502V7.00195C13.35 6.15195 15.8 5.50195 17.5 5.50195C18.7 5.50195 19.9 5.65195 21 6.00195V17.502Z" fill="#A674F8"/>
<path d="M17.5 9.50195C18.38 9.50195 19.23 9.59195 20 9.76195V8.24195C19.21 8.09195 18.36 8.00195 17.5 8.00195C15.8 8.00195 14.26 8.29195 13 8.83195V10.492C14.13 9.85195 15.7 9.50195 17.5 9.50195Z" fill="#A674F8"/>
<path d="M13 11.492V13.152C14.13 12.512 15.7 12.162 17.5 12.162C18.38 12.162 19.23 12.252 20 12.422V10.902C19.21 10.752 18.36 10.662 17.5 10.662C15.8 10.662 14.26 10.962 13 11.492Z" fill="#A674F8"/>
<path d="M17.5 13.332C15.8 13.332 14.26 13.622 13 14.162V15.822C14.13 15.182 15.7 14.832 17.5 14.832C18.38 14.832 19.23 14.922 20 15.092V13.572C19.21 13.412 18.36 13.332 17.5 13.332Z" fill="#A674F8"/>
</svg>
