<svg width="42" height="40" viewBox="0 0 42 40" fill="none" xmlns="http://www.w3.org/2000/svg">
<path d="M31.0662 3.27909C21.3094 -2.35404 9.61968 0.426457 4.04629 10.0798C1.13085 15.1295 0.68123 20.6872 2.31083 25.6475C2.37959 25.853 2.40578 26.0703 2.38781 26.2862C2.36984 26.5022 2.30809 26.7122 2.20633 26.9035L0.520756 30.041C0.396754 30.2719 0.331369 30.5297 0.330347 30.7917C0.329326 31.0538 0.3927 31.3121 0.514899 31.544C0.637097 31.7758 0.81438 31.9741 1.03116 32.1214C1.24794 32.2687 1.49758 32.3605 1.75814 32.3887L6.07074 32.8579C6.43617 32.8977 6.77664 33.0625 7.03464 33.3243C8.41232 34.7118 9.97028 35.9078 11.6666 36.8802C21.4235 42.5133 33.1117 39.7354 38.6866 30.0794C44.2615 20.4235 40.8231 8.91223 31.0662 3.27909ZM34.0039 22.2104L24.2545 27.3472C23.8878 27.5403 23.485 27.6554 23.0716 27.6851C22.6583 27.7148 22.2432 27.6585 21.8527 27.5198C21.4621 27.3811 21.1046 27.163 20.8025 26.8793C20.5005 26.5955 20.2605 26.2522 20.0977 25.8711L17.8038 20.4995C17.7012 20.2597 17.5234 20.0598 17.2971 19.9301C17.0708 19.8004 16.8085 19.7479 16.5497 19.7807L8.69062 20.7712C7.64195 20.9036 7.19377 19.481 8.129 18.9881L17.8772 13.8534C18.2439 13.6603 18.6466 13.5453 19.06 13.5156C19.4734 13.4859 19.8884 13.5421 20.279 13.6808C20.6695 13.8195 21.0271 14.0376 21.3291 14.3214C21.6312 14.6052 21.8712 14.9485 22.0339 15.3296L24.3286 20.701C24.4311 20.9408 24.6089 21.1407 24.8352 21.2704C25.0615 21.4001 25.3239 21.4525 25.5826 21.4198L33.442 20.4277C34.4914 20.2951 34.9396 21.7178 34.0039 22.2104V22.2104Z" fill="white"/>
</svg>
