<svg width="24" height="24" viewBox="0 0 24 24" fill="none" xmlns="http://www.w3.org/2000/svg">
<path fill-rule="evenodd" clip-rule="evenodd" d="M19.1111 4H4.88889C3.91111 4 3.11111 4.8 3.11111 5.77778V18.2222C3.11111 19.2 3.91111 20 4.88889 20H19.1111C20.0889 20 20.8889 19.2 20.8889 18.2222V5.77778C20.8889 4.8 20.0889 4 19.1111 4ZM19.1111 18.2222H4.88889V5.77778H19.1111V18.2222Z" fill="#2D8755"/>
<path fill-rule="evenodd" clip-rule="evenodd" d="M18.5867 10.5956L17.3244 9.33333L14.5067 12.1511L13.2533 10.8889L12 12.1422L14.5067 14.6667L18.5867 10.5956Z" fill="#2D8755"/>
<path d="M10.2222 7.55556H5.77778V9.33333H10.2222V7.55556Z" fill="#2D8755"/>
<path d="M10.2222 11.1111H5.77778V12.8889H10.2222V11.1111Z" fill="#2D8755"/>
<path d="M10.2222 14.6667H5.77778V16.4444H10.2222V14.6667Z" fill="#2D8755"/>
</svg>
