<svg width="24" height="24" viewBox="0 0 24 24" fill="none" xmlns="http://www.w3.org/2000/svg">
<path d="M19.0039 7.23677C19.3264 7.55926 19.3264 8.07194 19.0039 8.39443L9.62679 17.7715C9.3043 18.094 8.79162 18.094 8.46913 17.7715L4.99614 14.2985C4.67365 13.976 4.67365 13.4633 4.99614 13.1408C5.31863 12.8184 5.83131 12.8184 6.1538 13.1408L9.04796 16.035L17.8462 7.23677C18.1687 6.91428 18.6814 6.91428 19.0039 7.23677ZM17.2591 5.48374L9.04796 13.6949L6.74091 11.3878C6.09592 10.7428 5.04576 10.7428 4.40077 11.3878L3.24311 12.5455C2.59813 13.1905 2.59813 14.2406 3.24311 14.8856L7.87376 19.5163C8.51874 20.1612 9.56891 20.1612 10.2139 19.5163L20.7569 8.98153C21.4019 8.33655 21.4019 7.28638 20.7569 6.6414L19.5992 5.48374C18.946 4.83875 17.9041 4.83875 17.2591 5.48374Z" fill="#2D8755"/>
</svg>
