<svg width="20" height="20" viewBox="0 0 20 20" fill="none" xmlns="http://www.w3.org/2000/svg">
<path d="M10.4019 6.9054H9.19505V11.6602L13.0166 13.9188L13.6201 12.944L10.4019 11.0659V6.9054ZM14.2935 2L18 5.04705L16.9702 6.2635L13.2612 3.21803L14.2935 2ZM5.70574 2L6.73717 3.21724L3.02982 6.2635L2 5.04626L5.70574 2ZM9.9996 3.73551C6.00101 3.73551 2.75869 6.92917 2.75869 10.8678C2.75869 14.8063 6.00101 18 9.9996 18C13.9982 18 17.2405 14.8063 17.2405 10.8678C17.2405 6.92917 13.9982 3.73551 9.9996 3.73551ZM9.9996 16.4151C6.89405 16.4151 4.36778 13.9267 4.36778 10.8678C4.36778 7.80882 6.89405 5.32046 9.9996 5.32046C13.1051 5.32046 15.6314 7.80882 15.6314 10.8678C15.6314 13.9267 13.1051 16.4151 9.9996 16.4151Z" fill="#656867"/>
</svg>
