<svg width="25" height="24" viewBox="0 0 25 24" fill="none" xmlns="http://www.w3.org/2000/svg">
<path d="M21.2257 2.42506V2.85114C21.2272 3.48701 21.103 4.1169 20.8601 4.70456C20.6173 5.29223 20.2606 5.82608 19.8107 6.2754C19.6739 6.40439 19.5331 6.52557 19.3885 6.63893V2.42506H21.2257Z" fill="#F9A826"/>
<path d="M4.61261 2.42506V6.63893C4.04149 6.18615 3.57975 5.61049 3.26168 4.95473C2.94361 4.29897 2.7774 3.57996 2.77539 2.85114V2.42506H4.61261Z" fill="#F9A826"/>
<path d="M13.2788 15.2621V18.616H10.7224V15.2621C11.5673 15.4184 12.4338 15.4184 13.2788 15.2621Z" fill="#F9A826"/>
<path d="M17.7662 22.7869C17.7189 22.8537 17.6562 22.9082 17.5834 22.9457C17.5106 22.9831 17.4298 23.0024 17.3479 23.0018H6.65297C6.57155 23.0014 6.49137 22.9819 6.41889 22.9448C6.34641 22.9077 6.28367 22.8541 6.23574 22.7882C6.1878 22.7224 6.15601 22.6463 6.14293 22.5659C6.12985 22.4855 6.13585 22.4032 6.16044 22.3256L6.9696 19.7574C7.00372 19.6527 7.07014 19.5615 7.15934 19.4969C7.24853 19.4322 7.3559 19.3976 7.46604 19.3978H16.5348C16.645 19.3976 16.7524 19.4322 16.8415 19.4969C16.9307 19.5615 16.9972 19.6527 17.0313 19.7574L17.8404 22.3256C17.8657 22.4028 17.8721 22.485 17.8592 22.5652C17.8463 22.6455 17.8144 22.7214 17.7662 22.7869Z" fill="#F9A826"/>
<path d="M5.39409 1.00195V7.99119C5.39409 9.74325 6.0901 11.4236 7.32899 12.6625C8.56789 13.9013 10.2482 14.5973 12.0003 14.5973C13.7523 14.5973 15.4326 13.9013 16.6715 12.6625C17.9104 11.4236 18.6064 9.74325 18.6064 7.99119V1.00195H5.39409ZM15.8623 5.88817L13.8492 7.35403L14.6193 9.72286C14.644 9.8018 14.6433 9.88649 14.6174 9.96503C14.5914 10.0436 14.5415 10.112 14.4746 10.1607C14.4082 10.2089 14.3281 10.2349 14.246 10.2349C14.1638 10.2349 14.0838 10.2089 14.0173 10.1607L12.0003 8.69481L9.98322 10.1607C9.91626 10.2088 9.83584 10.2345 9.7534 10.2343C9.67096 10.234 9.59069 10.2078 9.52402 10.1593C9.45735 10.1108 9.40766 10.0425 9.38203 9.96418C9.35639 9.88583 9.35612 9.80138 9.38124 9.72286L10.1513 7.35403L8.13819 5.88817C8.07085 5.84017 8.02052 5.77202 7.99445 5.69355C7.96838 5.61508 7.96793 5.53035 7.99316 5.4516C8.01839 5.37286 8.068 5.30417 8.13483 5.25547C8.20165 5.20676 8.28222 5.18056 8.36491 5.18064H10.8588L11.6289 2.81181C11.6544 2.73341 11.7041 2.66509 11.7708 2.61664C11.8375 2.56819 11.9178 2.5421 12.0003 2.5421C12.0827 2.5421 12.163 2.56819 12.2297 2.61664C12.2964 2.66509 12.3461 2.73341 12.3716 2.81181L13.1417 5.18064H15.6356C15.7183 5.18056 15.7989 5.20676 15.8657 5.25547C15.9325 5.30417 15.9821 5.37286 16.0073 5.4516C16.0326 5.53035 16.0321 5.61508 16.0061 5.69355C15.98 5.77202 15.9297 5.84017 15.8623 5.88817Z" fill="#F9A826"/>
<path d="M13.0165 7.32273L13.5012 8.81986L12.2308 7.89734C12.1636 7.84905 12.0829 7.82307 12.0001 7.82307C11.9174 7.82307 11.8367 7.84905 11.7695 7.89734L10.4991 8.81986L10.9838 7.32273C11.0092 7.24481 11.0093 7.16085 10.984 7.0829C10.9587 7.00494 10.9094 6.937 10.8431 6.88883L9.56875 5.9624H11.1441C11.2264 5.96179 11.3064 5.93546 11.373 5.8871C11.4396 5.83873 11.4894 5.77076 11.5154 5.69269L12.0001 4.19555L12.4848 5.69269C12.5109 5.77076 12.5607 5.83873 12.6273 5.8871C12.6939 5.93546 12.7739 5.96179 12.8562 5.9624H14.4315L13.1572 6.88883C13.0909 6.937 13.0416 7.00494 13.0163 7.0829C12.991 7.16085 12.9911 7.24481 13.0165 7.32273Z" fill="#F9A826"/>
</svg>
