<svg width="24" height="24" viewBox="0 0 24 24" fill="none" xmlns="http://www.w3.org/2000/svg">
<path d="M19 4.00098H18V2.00098H16V4.00098H8V2.00098H6V4.00098H5C3.89 4.00098 3.01 4.90098 3.01 6.00098L3 20.001C3 21.101 3.89 22.001 5 22.001H19C20.1 22.001 21 21.101 21 20.001V6.00098C21 4.90098 20.1 4.00098 19 4.00098ZM19 20.001H5V10.001H19V20.001ZM19 8.00098H5V6.00098H19V8.00098ZM9 14.001H7V12.001H9V14.001ZM13 14.001H11V12.001H13V14.001ZM17 14.001H15V12.001H17V14.001ZM9 18.001H7V16.001H9V18.001ZM13 18.001H11V16.001H13V18.001ZM17 18.001H15V16.001H17V18.001Z" fill="#4E565C"/>
</svg>
