<svg width="25" height="24" viewBox="0 0 25 24" fill="none" xmlns="http://www.w3.org/2000/svg">
<path d="M13.0908 1C13.6678 1.00007 14.2319 1.12494 14.7471 1.35938C15.179 1.55593 15.5769 1.82986 15.9189 2.17188L20.1611 6.41406C20.5031 6.75608 20.7771 7.15401 20.9736 7.58594C21.2081 8.10112 21.3329 8.66521 21.333 9.24219V19C21.333 21.2091 19.5421 23 17.333 23H7.33301C5.12387 23 3.33301 21.2091 3.33301 19V5C3.33301 2.79086 5.12387 1 7.33301 1H13.0908ZM7.33301 3C6.22844 3 5.33301 3.89543 5.33301 5V19C5.33301 20.1046 6.22844 21 7.33301 21H17.333C18.4376 21 19.333 20.1046 19.333 19V9.24219C19.3329 8.95377 19.2706 8.67169 19.1533 8.41406C19.0862 8.26669 19.0001 8.12807 18.8984 8H15.333C14.7807 8 14.333 7.55228 14.333 7V3.43457C14.2049 3.33294 14.0663 3.24677 13.9189 3.17969C13.6613 3.06245 13.3792 3.00007 13.0908 3H7.33301ZM12.333 10.5C12.8853 10.5 13.333 10.9477 13.333 11.5V14.5859L13.626 14.293C14.0165 13.9024 14.6495 13.9024 15.04 14.293C15.4306 14.6835 15.4306 15.3165 15.04 15.707L13.04 17.707C12.6495 18.0976 12.0165 18.0976 11.626 17.707L9.62598 15.707L9.55762 15.6309C9.23727 15.2381 9.25986 14.6591 9.62598 14.293C9.99209 13.9269 10.5711 13.9043 10.9639 14.2246L11.04 14.293L11.333 14.5859V11.5C11.333 10.9477 11.7807 10.5 12.333 10.5Z" fill="#656867"/>
</svg>
