<svg width="23" height="21" viewBox="0 0 23 21" fill="none" xmlns="http://www.w3.org/2000/svg">
<path d="M6.44504 8.2665C6.2364 8.05787 6.11919 7.7749 6.11919 7.47984C6.11919 7.18479 6.2364 6.90182 6.44504 6.69319C6.65367 6.48455 6.93664 6.36734 7.23169 6.36734C7.52675 6.36734 7.80972 6.48455 8.01835 6.69319L10.5625 9.23918V2.29808C10.5625 2.00353 10.6795 1.72105 10.8878 1.51278C11.0961 1.30451 11.3785 1.1875 11.6731 1.1875C11.9676 1.1875 12.2501 1.30451 12.4584 1.51278C12.6666 1.72105 12.7837 2.00353 12.7837 2.29808V9.23918L15.3297 6.69226C15.5383 6.48363 15.8213 6.36641 16.1163 6.36641C16.4114 6.36641 16.6943 6.48363 16.903 6.69226C17.1116 6.90089 17.2288 7.18386 17.2288 7.47892C17.2288 7.77397 17.1116 8.05694 16.903 8.26558L12.4607 12.7079C12.3575 12.8114 12.2349 12.8936 12.0999 12.9496C11.9649 13.0057 11.8202 13.0345 11.674 13.0345C11.5278 13.0345 11.3831 13.0057 11.2481 12.9496C11.1131 12.8936 10.9905 12.8114 10.8873 12.7079L6.44504 8.2665ZM20.5577 10.8125H17.226C16.9314 10.8125 16.6489 10.9295 16.4407 11.1378C16.2324 11.3461 16.1154 11.6285 16.1154 11.9231C16.1154 12.2176 16.2324 12.5001 16.4407 12.7084C16.6489 12.9166 16.9314 13.0337 17.226 13.0337H20.1875V18.2163H3.15865V13.0337H6.12019C6.41474 13.0337 6.69722 12.9166 6.90549 12.7084C7.11376 12.5001 7.23077 12.2176 7.23077 11.9231C7.23077 11.6285 7.11376 11.3461 6.90549 11.1378C6.69722 10.9295 6.41474 10.8125 6.12019 10.8125H2.78846C2.29756 10.8125 1.82676 11.0075 1.47963 11.3546C1.13251 11.7018 0.9375 12.1726 0.9375 12.6635V18.5865C0.9375 19.0774 1.13251 19.5482 1.47963 19.8954C1.82676 20.2425 2.29756 20.4375 2.78846 20.4375H20.5577C21.0486 20.4375 21.5194 20.2425 21.8665 19.8954C22.2136 19.5482 22.4087 19.0774 22.4087 18.5865V12.6635C22.4087 12.1726 22.2136 11.7018 21.8665 11.3546C21.5194 11.0075 21.0486 10.8125 20.5577 10.8125ZM18.7067 15.625C18.7067 15.3321 18.6199 15.0458 18.4572 14.8023C18.2945 14.5588 18.0632 14.369 17.7926 14.2569C17.5221 14.1449 17.2243 14.1155 16.9371 14.1727C16.6498 14.2298 16.386 14.3708 16.1789 14.5779C15.9718 14.785 15.8308 15.0489 15.7736 15.3361C15.7165 15.6234 15.7458 15.9211 15.8579 16.1917C15.97 16.4622 16.1598 16.6935 16.4033 16.8562C16.6468 17.0189 16.9331 17.1058 17.226 17.1058C17.6187 17.1058 17.9953 16.9498 18.273 16.6721C18.5507 16.3944 18.7067 16.0177 18.7067 15.625Z" fill="#FEFEFE"/>
</svg>
