<svg width="22" height="22" viewBox="0 0 22 22" fill="none" xmlns="http://www.w3.org/2000/svg">
<path d="M5.4152 12.6165L5.46638 12.5099C5.67964 12.0792 6.01659 11.7283 6.43032 11.5063L6.53269 11.453C6.93789 11.2398 6.93789 10.6358 6.53269 10.4182L6.43032 10.3649C6.01659 10.1429 5.67964 9.79206 5.46638 9.36129L5.4152 9.2547C5.21046 8.83281 4.63039 8.83281 4.42139 9.2547L4.37021 9.36129C4.15695 9.79206 3.81999 10.1429 3.40626 10.3649L3.3039 10.4182C2.8987 10.6314 2.8987 11.2354 3.3039 11.453L3.40626 11.5063C3.81999 11.7283 4.15695 12.0792 4.37021 12.5099L4.42139 12.6165C4.62612 13.0384 5.2062 13.0384 5.4152 12.6165Z" fill="#656867"/>
<path d="M17.6266 16.1915L17.5242 16.1382C17.1105 15.9161 16.7735 15.5653 16.5603 15.1345L16.5091 15.028C16.3044 14.6061 15.7243 14.6061 15.5153 15.028L15.4641 15.1345C15.2509 15.5653 14.9139 15.9161 14.5002 16.1382L14.3978 16.1915C13.9926 16.4046 13.9926 17.0086 14.3978 17.2262L14.5002 17.2795C14.9139 17.5016 15.2509 17.8524 15.4641 18.2832L15.5153 18.3898C15.72 18.8117 16.3001 18.8117 16.5091 18.3898L16.5603 18.2832C16.7735 17.8524 17.1105 17.5016 17.5242 17.2795L17.6266 17.2262C18.0318 17.0131 18.0318 16.4091 17.6266 16.1915Z" fill="#656867"/>
<path d="M5.73935 7.06087L5.87584 7.13192C6.30237 7.35841 6.64359 7.71369 6.86111 8.15778L6.92936 8.2999C7.16395 8.77952 7.63312 9.07706 8.14922 9.07706C8.66531 9.07706 9.13449 8.77952 9.37334 8.2999L9.44159 8.15778C9.65911 7.71369 10.0003 7.35841 10.4269 7.13192L10.5633 7.06087C11.024 6.81661 11.3098 6.32811 11.3098 5.79075C11.3098 5.2534 11.024 4.76489 10.5633 4.5162L10.4269 4.44514C10.0003 4.21865 9.65911 3.86338 9.44159 3.41928L9.37334 3.27717C9.13875 2.79754 8.66958 2.5 8.14922 2.5C7.62886 2.5 7.16395 2.79754 6.92509 3.27717L6.85685 3.41928C6.63932 3.86338 6.2981 4.21865 5.87158 4.44514L5.73509 4.5162C5.27444 4.76045 4.98867 5.24895 4.98867 5.79075C4.98867 6.33255 5.27444 6.81661 5.73509 7.06531L5.73935 7.06087ZM6.31943 5.70193L6.45592 5.63088C7.12556 5.2756 7.65871 4.72048 7.99993 4.02325L8.06818 3.88114C8.06818 3.88114 8.09377 3.82785 8.14922 3.82785C8.20467 3.82785 8.22599 3.86338 8.23026 3.88114L8.2985 4.02325C8.63972 4.72048 9.17288 5.2756 9.84252 5.63088L9.97901 5.70193C9.97901 5.70193 10.0302 5.72858 10.0302 5.78631C10.0302 5.84404 9.9918 5.86625 9.97901 5.87069L9.84252 5.94175C9.17288 6.29702 8.63972 6.85214 8.2985 7.54937L8.23026 7.69148C8.23026 7.69148 8.20467 7.74478 8.14922 7.74478C8.09377 7.74478 8.07244 7.70481 8.06818 7.69148L7.99993 7.54937C7.65871 6.85214 7.12556 6.29702 6.45592 5.94175L6.31943 5.87069C6.31943 5.87069 6.26824 5.84404 6.26824 5.78631C6.26824 5.72858 6.30663 5.70637 6.31943 5.70193Z" fill="#656867"/>
<path d="M18.4796 6.11494L17.6522 5.2534C17.3195 4.907 16.8759 4.71604 16.4067 4.71604C15.9376 4.71604 15.494 4.907 15.1613 5.2534L6.30237 14.4773C6.30237 14.4773 6.29384 14.4906 6.28957 14.4995C6.23839 14.5572 6.19574 14.6194 6.16588 14.6904V14.6993L4.93322 17.7591C4.74129 18.2343 4.84792 18.7761 5.20193 19.1403C5.43226 19.3757 5.73509 19.5 6.04645 19.5C6.20853 19.5 6.37488 19.4645 6.53269 19.3934L9.41173 18.0789L9.42879 18.07C9.49704 18.0389 9.55248 17.9945 9.60367 17.9457C9.60793 17.9412 9.61646 17.9368 9.62499 17.9323L18.4839 8.70846C18.8166 8.36207 19 7.90021 19 7.4117C19 6.9232 18.8166 6.46134 18.4839 6.11494H18.4796ZM9.16861 16.5201L7.65871 14.948L14.2954 8.03788L15.8053 9.60998L9.16861 16.5201ZM17.5754 7.76698L16.7096 8.6685L15.1997 7.09639L16.0655 6.19488C16.2447 6.00392 16.5645 6.00392 16.748 6.19488L17.5754 7.05643C17.665 7.14969 17.7162 7.27847 17.7162 7.4117C17.7162 7.54493 17.665 7.66928 17.5754 7.76698Z" fill="#656867"/>
</svg>
