<svg width="21" height="22" viewBox="0 0 21 22" fill="none" xmlns="http://www.w3.org/2000/svg">
<path d="M9.85729 12.9258C9.75151 12.7663 9.6079 12.6355 9.43927 12.545C9.27064 12.4545 9.08224 12.4071 8.89086 12.4071C8.69948 12.4071 8.51108 12.4545 8.34245 12.545C8.17382 12.6355 8.03021 12.7663 7.92442 12.9258L6.47477 15.0983L5.82726 14.1232C5.72039 13.9632 5.57539 13.8323 5.40531 13.7423C5.23523 13.6522 5.04543 13.606 4.85301 13.6076C4.66058 13.6092 4.47159 13.6587 4.30306 13.7516C4.13454 13.8445 3.99177 13.9778 3.88762 14.1396L0.184246 19.9006C0.0716175 20.0757 0.00823335 20.278 0.00074931 20.4861C-0.00673473 20.6942 0.0419575 20.9005 0.141713 21.0833C0.241468 21.2661 0.388605 21.4187 0.567672 21.525C0.746739 21.6313 0.95113 21.6874 1.15938 21.6875H13.5297C13.7398 21.6878 13.9461 21.631 14.1264 21.5233C14.3067 21.4155 14.4544 21.2608 14.5537 21.0756C14.6529 20.8904 14.7 20.6817 14.6898 20.4719C14.6797 20.2621 14.6128 20.0589 14.4962 19.8841L9.85729 12.9258ZM3.28554 19.3681L4.88015 16.8843L5.51317 17.8324C5.61896 17.9919 5.76257 18.1227 5.9312 18.2132C6.09982 18.3037 6.28823 18.3511 6.4796 18.3511C6.67098 18.3511 6.85938 18.3037 7.02801 18.2132C7.19664 18.1227 7.34025 17.9919 7.44604 17.8324L8.89569 15.6598L11.363 19.3681H3.28554ZM19.7623 6.56376L14.3503 1.15172C14.2425 1.04406 14.1145 0.958685 13.9737 0.900481C13.833 0.842277 13.6821 0.812381 13.5297 0.8125H4.25197C3.73934 0.8125 3.24771 1.01614 2.88523 1.37863C2.52274 1.74111 2.3191 2.23274 2.3191 2.74537V10.8634C2.3191 11.171 2.44129 11.466 2.65878 11.6835C2.87627 11.901 3.17125 12.0231 3.47882 12.0231C3.7864 12.0231 4.08138 11.901 4.29887 11.6835C4.51636 11.466 4.63855 11.171 4.63855 10.8634V3.13194H11.9835V7.77083C11.9835 8.07841 12.1056 8.37339 12.3231 8.59088C12.5406 8.80837 12.8356 8.93056 13.1432 8.93056H17.7821V19.3681C17.4745 19.3681 17.1795 19.4902 16.962 19.7077C16.7445 19.9252 16.6223 20.2202 16.6223 20.5278C16.6223 20.8354 16.7445 21.1303 16.962 21.3478C17.1795 21.5653 17.4745 21.6875 17.7821 21.6875H18.1686C18.6813 21.6875 19.1729 21.4839 19.5354 21.1214C19.8979 20.7589 20.1015 20.2673 20.1015 19.7546V7.38426C20.1016 7.23192 20.0717 7.08104 20.0135 6.94026C19.9553 6.79948 19.87 6.67154 19.7623 6.56376ZM14.3029 4.38831L16.5257 6.61111H14.3029V4.38831Z" fill="#FEFEFE"/>
</svg>
