<svg width="22" height="22" viewBox="0 0 22 22" fill="none" xmlns="http://www.w3.org/2000/svg">
<path d="M14.578 3.5C15.1795 3.5 15.6672 3.97664 15.6672 4.56443L15.6673 8.34789L17.9108 8.34784C18.5019 8.34784 18.9829 8.80795 18.9996 9.38155L19 14.5113C19 16.7142 17.1727 18.5 14.9186 18.5H7.08138C4.82734 18.5 3 16.7142 3 14.5113V4.56443C3 3.97659 3.48778 3.5 4.08931 3.5H14.578ZM14.255 4.88018H4.41224V14.5113C4.41224 15.9375 5.58352 17.0965 7.03724 17.1195L14.9186 17.1199C16.3928 17.1199 17.5878 15.952 17.5878 14.5113V9.72802L15.6663 9.72769L15.6672 14.0333C15.6672 14.4144 15.3511 14.7233 14.9611 14.7233C14.58 14.7233 14.2694 14.4283 14.2555 14.0591L14.255 4.88018ZM11.5219 13.3432C11.9119 13.3432 12.228 13.6521 12.228 14.0333C12.228 14.4057 11.9261 14.7092 11.5484 14.7229L7.26095 14.7233C6.87097 14.7233 6.55483 14.4144 6.55483 14.0333C6.55483 13.6608 6.85676 13.3573 7.23448 13.3437L11.5219 13.3432ZM11.5219 10.3099C11.9119 10.3099 12.228 10.6188 12.228 11C12.228 11.3724 11.9261 11.6759 11.5484 11.6895L7.26095 11.69C6.87097 11.69 6.55483 11.3811 6.55483 11C6.55483 10.6275 6.85676 10.324 7.23448 10.3104L11.5219 10.3099ZM11.5219 7.27658C11.9119 7.27658 12.228 7.58553 12.228 7.96665C12.228 8.3391 11.9261 8.64263 11.5484 8.65624L11.5219 8.65671H7.26095C6.87097 8.65671 6.55483 8.34776 6.55483 7.96665C6.55483 7.59419 6.85676 7.29066 7.23448 7.27705L11.5219 7.27658Z" fill="#656867"/>
</svg>
