<svg width="24" height="25" viewBox="0 0 24 25" fill="none" xmlns="http://www.w3.org/2000/svg">
<path d="M18 20.25H6V17.25H4V20.25C4 21.35 4.9 22.25 6 22.25H18C19.1 22.25 20 21.35 20 20.25V17.25H18V20.25Z" fill="#FEFEFE"/>
<path d="M6 4.25H13V9.25H18V11.25H20V8.25L14 2.25H6C4.9 2.25 4 3.15 4 4.25V11.25H6V4.25Z" fill="#FEFEFE"/>
<path d="M15 13.25H9V15.25H15V13.25Z" fill="#FEFEFE"/>
<path d="M23 13.25H17V15.25H23V13.25Z" fill="#FEFEFE"/>
<path d="M7 13.25H1V15.25H7V13.25Z" fill="#FEFEFE"/>
</svg>
