<svg width="20" height="20" viewBox="0 0 20 20" fill="none" xmlns="http://www.w3.org/2000/svg">
<path d="M1.46667 15.3333C1.46667 15.6267 1.70667 15.8667 2 15.8667H4.18667C4.43333 17.0833 5.51 18 6.8 18C8.09 18 9.16667 17.0833 9.41333 15.8667H18C18.2933 15.8667 18.5333 15.6267 18.5333 15.3333C18.5333 15.04 18.2933 14.8 18 14.8H9.41333C9.16667 13.5833 8.09 12.6667 6.8 12.6667C5.51 12.6667 4.43333 13.5833 4.18667 14.8H2C1.70667 14.8 1.46667 15.04 1.46667 15.3333ZM5.2 15.3333C5.2 14.4497 5.91633 13.7333 6.8 13.7333C7.68363 13.7333 8.4 14.4497 8.4 15.3333C8.4 16.217 7.68363 16.9333 6.8 16.9333C5.91633 16.9333 5.2 16.217 5.2 15.3333ZM11.6 10C11.6 9.11633 12.3163 8.4 13.2 8.4C14.0836 8.4 14.8 9.11633 14.8 10C14.8 10.8836 14.0836 11.6 13.2 11.6C12.3163 11.6 11.6 10.8836 11.6 10ZM13.2 7.33333C11.91 7.33333 10.8333 8.25 10.5867 9.46667H2C1.70667 9.46667 1.46667 9.70667 1.46667 10C1.46667 10.2933 1.70667 10.5333 2 10.5333H10.5867C10.8333 11.75 11.91 12.6667 13.2 12.6667C14.49 12.6667 15.5667 11.75 15.8133 10.5333H18C18.2933 10.5333 18.5333 10.2933 18.5333 10C18.5333 9.70667 18.2933 9.46667 18 9.46667H15.8133C15.5667 8.25 14.49 7.33333 13.2 7.33333ZM7.86667 6.26667C6.983 6.26667 6.26667 5.5503 6.26667 4.66667C6.26667 3.783 6.983 3.06667 7.86667 3.06667C8.7503 3.06667 9.46667 3.783 9.46667 4.66667C9.46667 5.5503 8.7503 6.26667 7.86667 6.26667ZM10.48 4.13333C10.2333 2.91667 9.15667 2 7.86667 2C6.57667 2 5.5 2.91667 5.25333 4.13333H2C1.70667 4.13333 1.46667 4.37333 1.46667 4.66667C1.46667 4.96 1.70667 5.2 2 5.2H5.25333C5.5 6.41667 6.57667 7.33333 7.86667 7.33333C9.15667 7.33333 10.2333 6.41667 10.48 5.2H18C18.2933 5.2 18.5333 4.96 18.5333 4.66667C18.5333 4.37333 18.2933 4.13333 18 4.13333H10.48Z" fill="#656867"/>
</svg>
