<svg width="25" height="25" viewBox="0 0 25 25" fill="none" xmlns="http://www.w3.org/2000/svg">
<path d="M1.5 17.5V7.5C1.5 5.29086 3.29086 3.5 5.5 3.5H9.89453C11.2319 3.50003 12.4808 4.16848 13.2227 5.28125L13.4414 5.60938C13.8123 6.16575 14.4368 6.49997 15.1055 6.5H19.5C21.7091 6.5 23.5 8.29086 23.5 10.5V17.5C23.5 19.7091 21.7091 21.5 19.5 21.5H5.5C3.29086 21.5 1.5 19.7091 1.5 17.5ZM3.5 17.5C3.5 18.6046 4.39543 19.5 5.5 19.5H19.5C20.6046 19.5 21.5 18.6046 21.5 17.5V10.5C21.5 9.39543 20.6046 8.5 19.5 8.5H15.1055C13.7681 8.49997 12.5192 7.83152 11.7773 6.71875L11.5586 6.39062C11.1877 5.83425 10.5632 5.50003 9.89453 5.5H5.5C4.39543 5.5 3.5 6.39543 3.5 7.5V17.5Z" fill="#656867"/>
</svg>
