<svg width="20" height="20" viewBox="0 0 20 20" fill="none" xmlns="http://www.w3.org/2000/svg">
<g clip-path="url(#clip0_8_9)">
<path d="M19.5149 6.05428L10.4524 1.05428C10.3136 0.977678 10.1577 0.9375 9.99926 0.9375C9.84077 0.9375 9.68488 0.977678 9.54613 1.05428L0.483635 6.05428C0.337102 6.13535 0.214961 6.2542 0.129909 6.39846C0.0448576 6.54272 0 6.70712 0 6.87459C0 7.04206 0.0448576 7.20647 0.129909 7.35073C0.214961 7.49498 0.337102 7.61383 0.483635 7.6949L2.18676 8.6324V12.3637C2.18614 12.7478 2.32781 13.1185 2.58442 13.4043C3.64223 14.5863 6.01488 16.5629 9.99926 16.5629C11.0574 16.5686 12.1106 16.4172 13.1243 16.1137V18.1254C13.1243 18.374 13.223 18.6125 13.3988 18.7883C13.5747 18.9641 13.8131 19.0629 14.0618 19.0629C14.3104 19.0629 14.5489 18.9641 14.7247 18.7883C14.9005 18.6125 14.9993 18.374 14.9993 18.1254V15.3222C15.9047 14.8221 16.7208 14.175 17.4141 13.4074C17.6707 13.1216 17.8124 12.7509 17.8118 12.3668V8.63553L19.5149 7.69803C19.6614 7.61695 19.7836 7.49811 19.8686 7.35385C19.9537 7.20959 19.9985 7.04518 19.9985 6.87772C19.9985 6.71025 19.9537 6.54584 19.8686 6.40158C19.7836 6.25732 19.6614 6.13848 19.5149 6.0574V6.05428ZM9.99926 2.94647L17.1211 6.87537L14.5305 8.30506C14.5256 8.30221 14.521 8.29908 14.5164 8.29568L10.4539 6.05428C10.2371 5.94218 9.98498 5.91911 9.75134 5.98999C9.5177 6.06087 9.32093 6.2201 9.20288 6.43382C9.08482 6.64754 9.0548 6.89888 9.1192 7.13438C9.18359 7.36989 9.33733 7.57099 9.5477 7.6949L12.5946 9.37381L9.99926 10.8051L2.87738 6.87537L9.99926 2.94647ZM9.99926 14.6879C6.84145 14.6879 4.94848 13.198 4.06176 12.2449V9.66678L9.54613 12.6933C9.68488 12.7699 9.84077 12.8101 9.99926 12.8101C10.1577 12.8101 10.3136 12.7699 10.4524 12.6933L13.1243 11.2222V14.1308C12.126 14.5081 11.0664 14.697 9.99926 14.6879ZM15.9368 12.2449C15.6493 12.553 15.3356 12.8356 14.9993 13.0894V10.1871L15.9368 9.6699V12.2449Z" fill="#034C31"/>
</g>
<defs>
<clipPath id="clip0_8_9">
<rect width="20" height="20" fill="white"/>
</clipPath>
</defs>
</svg>
