<svg width="24" height="25" viewBox="0 0 24 25" fill="none" xmlns="http://www.w3.org/2000/svg">
<path d="M19 1.82422H5C3.89 1.82422 3 2.72422 3 3.82422V17.8242C3 18.9242 3.89 19.8242 5 19.8242H9L12 22.8242L15 19.8242H19C20.1 19.8242 21 18.9242 21 17.8242V3.82422C21 2.72422 20.1 1.82422 19 1.82422ZM19 17.8242H14.17L12 19.9942L9.83 17.8242H5V3.82422H19V17.8242ZM11 14.8242H13V16.8242H11V14.8242ZM12 6.82422C13.1 6.82422 14 7.72422 14 8.82422C14 10.8242 11 10.5742 11 13.8242H13C13 11.5742 16 11.3242 16 8.82422C16 6.61422 14.21 4.82422 12 4.82422C9.79 4.82422 8 6.61422 8 8.82422H10C10 7.72422 10.9 6.82422 12 6.82422Z" fill="#034C31"/>
</svg>
