<svg width="21" height="20" viewBox="0 0 21 20" fill="none" xmlns="http://www.w3.org/2000/svg">
<path d="M10.5 2C7.45929 2 5 4.504 5 7.6C5 11.8 10.5 18 10.5 18C10.5 18 16 11.8 16 7.6C16 4.504 13.5407 2 10.5 2ZM6.57143 7.6C6.57143 5.392 8.33143 3.6 10.5 3.6C12.6686 3.6 14.4286 5.392 14.4286 7.6C14.4286 9.904 12.1657 13.352 10.5 15.504C8.86571 13.368 6.57143 9.88 6.57143 7.6Z" fill="#656867"/>
<path d="M10.5 9.6C11.5848 9.6 12.4643 8.70457 12.4643 7.6C12.4643 6.49543 11.5848 5.6 10.5 5.6C9.41515 5.6 8.53571 6.49543 8.53571 7.6C8.53571 8.70457 9.41515 9.6 10.5 9.6Z" fill="#656867"/>
</svg>
