<svg width="16" height="22" viewBox="0 0 16 22" fill="none" xmlns="http://www.w3.org/2000/svg">
<g clip-path="url(#clip0_35_12)">
<path fill-rule="evenodd" clip-rule="evenodd" d="M14.0752 9.11943H13.4089L13.4099 5.65179C13.4099 2.54387 10.9749 0 8.00006 0C5.02519 0 2.59023 2.54387 2.59023 5.65179V9.11943H1.92391C0.865822 9.11943 0 10.024 0 11.1294V19.99C0 21.0955 0.865822 22 1.92391 22H14.0751C15.1331 22 15.999 21.0955 15.999 19.99L16 11.1294C16 10.024 15.1343 9.11943 14.0752 9.11943ZM4.99342 5.65179C4.99342 3.92438 6.34663 2.51059 8.00014 2.51059C9.65366 2.51059 11.0069 3.92433 11.0069 5.65179V9.11943H4.99342V5.65179ZM8.81039 15.4148V18.0134C8.81039 18.4786 8.44741 18.8599 8.00012 18.8599C7.55487 18.8599 7.18984 18.4807 7.18984 18.0134V15.4148C6.70553 15.1236 6.38161 14.5757 6.38161 13.9516C6.38161 13.017 7.10552 12.2607 8.00012 12.2607C8.89471 12.2607 9.61862 13.017 9.61862 13.9516C9.61862 14.5757 9.29265 15.1226 8.81039 15.4148Z" fill="#034C31"/>
</g>
<defs>
<clipPath id="clip0_35_12">
<rect width="16" height="22" fill="white"/>
</clipPath>
</defs>
</svg>
