<svg width="24" height="24" viewBox="0 0 24 24" fill="none" xmlns="http://www.w3.org/2000/svg">
<path d="M11 6.00195H9V4.00195H11V6.00195ZM15 4.00195H13V6.00195H15V4.00195ZM9 14.002H11V12.002H9V14.002ZM19 10.002V8.00195H17V10.002H19ZM19 14.002V12.002H17V14.002H19ZM13 14.002H15V12.002H13V14.002ZM19 4.00195H17V6.00195H19V4.00195ZM13 8.00195V6.00195H11V8.00195H13ZM7 10.002V8.00195H9V6.00195H7V4.00195H5V20.002H7V12.002H9V10.002H7ZM15 12.002H17V10.002H15V12.002ZM11 10.002V12.002H13V10.002H11ZM9 8.00195V10.002H11V8.00195H9ZM13 10.002H15V8.00195H13V10.002ZM15 6.00195V8.00195H17V6.00195H15Z" fill="#034C31"/>
</svg>
