<svg width="10" height="18" viewBox="0 0 10 18" fill="none" xmlns="http://www.w3.org/2000/svg">
<path d="M0.45317 17.2969C0.34829 17.1924 0.265074 17.0682 0.208293 16.9314C0.151512 16.7947 0.122282 16.6481 0.122282 16.5C0.122282 16.3519 0.151512 16.2053 0.208293 16.0686C0.265074 15.9318 0.34829 15.8076 0.45317 15.7031L7.15536 9.00094L0.45317 2.29687C0.241826 2.08553 0.123094 1.79888 0.123094 1.5C0.123094 1.20111 0.241826 0.914467 0.45317 0.703123C0.664515 0.491779 0.951159 0.373046 1.25005 0.373046C1.54893 0.373047 1.83558 0.491779 2.04692 0.703123L9.54692 8.20312C9.6518 8.30764 9.73502 8.43183 9.7918 8.56858C9.84858 8.70532 9.87781 8.85193 9.87781 9C9.87781 9.14806 9.84858 9.29467 9.7918 9.43142C9.73502 9.56817 9.6518 9.69236 9.54692 9.79687L2.04692 17.2969C1.9424 17.4018 1.81821 17.485 1.68147 17.5418C1.54472 17.5985 1.39811 17.6278 1.25004 17.6278C1.10198 17.6278 0.955369 17.5985 0.818624 17.5418C0.681878 17.485 0.557686 17.4018 0.45317 17.2969Z" fill="#656867"/>
</svg>
