<svg width="25" height="25" viewBox="0 0 25 25" fill="none" xmlns="http://www.w3.org/2000/svg">
<path d="M2.5 16.5V7.5C2.5 6.94772 2.94772 6.5 3.5 6.5C4.05228 6.5 4.5 6.94772 4.5 7.5V16.5C4.5 19.2614 6.73858 21.5 9.5 21.5H16.5C17.0523 21.5 17.5 21.9477 17.5 22.5C17.5 23.0523 17.0523 23.5 16.5 23.5H9.5C5.63401 23.5 2.5 20.366 2.5 16.5ZM5.5 16.5V5.5C5.5 3.29086 7.29086 1.5 9.5 1.5H14.1201C14.5218 1.5 14.9168 1.56041 15.293 1.67578C16.0096 1.89566 16.6588 2.3151 17.1572 2.89648L21.5371 8.00684C21.9795 8.52304 22.2806 9.13987 22.417 9.79688C22.4721 10.0624 22.5 10.3347 22.5 10.6094V16.5C22.5 18.7091 20.7091 20.5 18.5 20.5H9.5C7.29086 20.5 5.5 18.7091 5.5 16.5ZM7.5 16.5C7.5 17.6046 8.39543 18.5 9.5 18.5H18.5C19.6046 18.5 20.5 17.6046 20.5 16.5V10.6094C20.5 10.472 20.4856 10.3358 20.458 10.2031C20.3898 9.8747 20.2396 9.56658 20.0186 9.30859L15.6387 4.19824C15.3896 3.9077 15.0654 3.69791 14.707 3.58789C14.519 3.53019 14.3211 3.5 14.1201 3.5H9.5C8.39543 3.5 7.5 4.39543 7.5 5.5V16.5Z" fill="#656867"/>
</svg>
