<svg width="24" height="24" viewBox="0 0 24 24" fill="none" xmlns="http://www.w3.org/2000/svg">
<path d="M2 16.002H22V18.002H2V16.002ZM3.15 11.952L4 10.472L4.85 11.952L6.15 11.202L5.3 9.72195H7V8.22195H5.3L6.15 6.75195L4.85 6.00195L4 7.47195L3.15 6.00195L1.85 6.75195L2.7 8.22195H1V9.72195H2.7L1.85 11.202L3.15 11.952ZM9.85 11.202L11.15 11.952L12 10.472L12.85 11.952L14.15 11.202L13.3 9.72195H15V8.22195H13.3L14.15 6.75195L12.85 6.00195L12 7.47195L11.15 6.00195L9.85 6.75195L10.7 8.22195H9V9.72195H10.7L9.85 11.202ZM23 8.22195H21.3L22.15 6.75195L20.85 6.00195L20 7.47195L19.15 6.00195L17.85 6.75195L18.7 8.22195H17V9.72195H18.7L17.85 11.202L19.15 11.952L20 10.472L20.85 11.952L22.15 11.202L21.3 9.72195H23V8.22195Z" fill="#034C31"/>
</svg>
