<svg width="24" height="24" viewBox="0 0 24 24" fill="none" xmlns="http://www.w3.org/2000/svg">
<path d="M20.1125 7.70195L19.1125 8.70195C20.9125 10.502 20.9125 13.302 19.1125 15.202L20.1125 16.202C22.6125 13.902 22.6125 10.102 20.1125 7.70195ZM18.0125 9.80195L17.0125 10.802C17.5125 11.502 17.5125 12.402 17.0125 13.102L18.0125 14.102C19.2125 12.902 19.2125 11.102 18.0125 9.80195ZM14.0125 1.00195H4.01251C2.91251 1.00195 2.01251 1.90195 2.01251 3.00195V21.002C2.01251 22.102 2.91251 23.002 4.01251 23.002H14.0125C15.1125 23.002 16.0125 22.102 16.0125 21.002V3.00195C16.0125 1.90195 15.1125 1.00195 14.0125 1.00195ZM14.0125 20.002H4.01251V4.00195H14.0125V20.002Z" fill="#034C31"/>
</svg>
