<svg width="22" height="22" viewBox="0 0 22 22" fill="none" xmlns="http://www.w3.org/2000/svg">
<path d="M11.0042 17.22C10.4995 17.22 6.0668 17.2115 4.79669 16.8667C3.86304 16.6144 3.11444 15.8742 2.85369 14.949C2.60977 13.5948 2.49201 12.2911 2.50042 11.0042C2.50042 9.74255 2.60977 8.44725 2.83687 7.1856C3.08921 6.16786 3.8294 5.40246 4.78828 5.1333C6.0668 4.78845 10.4995 4.78004 11.0042 4.78004C11.5005 4.78004 15.9332 4.78845 17.1865 5.09966C18.1706 5.37722 18.9108 6.14263 19.1547 7.10149C19.1631 7.11831 19.1631 7.13513 19.1631 7.16036C19.3902 8.43884 19.508 9.73414 19.4996 11.021C19.508 12.2827 19.3902 13.5612 19.1631 14.8144C18.9108 15.8321 18.1706 16.5975 17.2117 16.8667C15.9416 17.2115 11.5089 17.22 11.0042 17.22V17.22ZM11.0042 6.46225C9.19578 6.46225 6.02474 6.53795 5.23408 6.74822C4.8724 6.84915 4.578 7.15195 4.47707 7.53045C4.28361 8.64912 4.18267 9.83507 4.19108 11.0126C4.18267 12.207 4.28361 13.4013 4.49389 14.5789C4.578 14.8649 4.8724 15.1508 5.24249 15.2518C6.03315 15.4621 9.19578 15.5462 11.0042 15.5462C12.8126 15.5462 15.9837 15.4705 16.7743 15.2518C17.136 15.1508 17.4304 14.848 17.5313 14.4696C17.7248 13.3677 17.8341 12.1902 17.8257 11.021C17.8341 9.83507 17.7332 8.64912 17.5229 7.48839C17.422 7.11831 17.136 6.83233 16.7659 6.72299C15.9921 6.52953 12.821 6.46225 11.0042 6.46225Z" fill="#656867"/>
<path d="M9.44026 14.1331C9.29727 14.1331 9.14586 14.0995 9.0197 14.0154C8.75895 13.864 8.59913 13.5864 8.59913 13.292V8.74167C8.59913 8.43888 8.75895 8.16131 9.0197 8.01832C9.28044 7.86693 9.60007 7.86693 9.86082 8.01832L13.8646 10.2977C14.1253 10.4491 14.2936 10.7267 14.2936 11.0295C14.2936 11.3323 14.1337 11.6098 13.8646 11.7612L9.86082 14.0406C9.72624 14.0911 9.58325 14.1331 9.44026 14.1331ZM9.74306 9.22951V12.7958L12.8721 11.0127L9.74306 9.22951Z" fill="#656867"/>
</svg>
