<svg width="10" height="18" viewBox="0 0 10 18" fill="none" xmlns="http://www.w3.org/2000/svg">
<path d="M9.54689 0.703127C9.65177 0.807644 9.73499 0.931834 9.79177 1.06858C9.84855 1.20533 9.87778 1.35194 9.87778 1.5C9.87778 1.64807 9.84855 1.79468 9.79177 1.93142C9.73499 2.06817 9.65177 2.19236 9.54689 2.29688L2.8447 8.99906L9.54689 15.7031C9.75824 15.9145 9.87697 16.2011 9.87697 16.5C9.87697 16.7989 9.75824 17.0855 9.54689 17.2969C9.33555 17.5082 9.0489 17.627 8.75002 17.627C8.45113 17.627 8.16449 17.5082 7.95314 17.2969L0.45314 9.79688C0.34826 9.69236 0.265044 9.56817 0.208263 9.43142C0.151482 9.29468 0.122254 9.14807 0.122254 9C0.122254 8.85194 0.151482 8.70533 0.208263 8.56858C0.265044 8.43183 0.34826 8.30764 0.45314 8.20313L7.95314 0.703127C8.05766 0.598247 8.18185 0.51503 8.3186 0.458249C8.45534 0.401468 8.60195 0.372239 8.75002 0.372239C8.89808 0.372239 9.04469 0.401468 9.18144 0.458249C9.31818 0.515031 9.44238 0.598247 9.54689 0.703127Z" fill="#656867"/>
</svg>
