<svg width="18" height="22" viewBox="0 0 18 22" fill="none" xmlns="http://www.w3.org/2000/svg">
<path d="M17.2443 3.56632H17.198C14.2337 3.56632 11.3622 2.31579 9.34743 0.138947C9.16216 -0.0463158 8.8148 -0.0463158 8.65269 0.138947C6.63795 2.31579 3.76637 3.56632 0.802163 3.56632H0.755847C0.50111 3.56632 0.269531 3.77474 0.269531 4.05263V9.30947C0.269531 13.64 2.42322 17.6695 6.01269 20.0779L8.72216 21.9074C8.79164 21.9537 8.88427 22 9.00006 22C9.11585 22 9.18532 21.9768 9.27795 21.9074L11.9874 20.0779C15.5769 17.6695 17.7306 13.64 17.7306 9.30947V4.02947C17.7074 3.77474 17.499 3.56632 17.2443 3.56632ZM9.00006 15.7937C6.24427 15.7937 3.99795 13.5474 3.99795 10.7916C3.99795 8.03579 6.24427 5.78947 9.00006 5.78947C11.7558 5.78947 14.0022 8.03579 14.0022 10.7916C14.0022 13.5474 11.7558 15.7937 9.00006 15.7937Z" fill="#034C31"/>
<path d="M10.459 8.66106L8.30534 11.0232L7.54113 10.1895C7.21692 9.84212 6.66113 9.81896 6.31376 10.1432C5.96639 10.4674 5.94323 11.0232 6.26744 11.3705L7.68007 12.899C7.84218 13.0842 8.07376 13.1769 8.3285 13.1769C8.58323 13.1769 8.81481 13.0842 8.97692 12.899L11.779 9.84212C12.1032 9.49475 12.0801 8.93896 11.7327 8.61475C11.339 8.29054 10.8064 8.3137 10.459 8.66106Z" fill="#034C31"/>
</svg>
