<svg width="20" height="20" viewBox="0 0 20 20" fill="none" xmlns="http://www.w3.org/2000/svg">
<path d="M17.7961 4.11094L10.2961 1.61094C10.104 1.5461 9.89598 1.5461 9.70391 1.61094L2.20391 4.11094C2.02495 4.17021 1.86802 4.28205 1.75359 4.43188C1.63917 4.5817 1.57258 4.76253 1.5625 4.95078C1.56164 4.96718 1.56164 4.9836 1.5625 5V11.25C1.5625 11.4986 1.66127 11.7371 1.83709 11.9129C2.0129 12.0887 2.25136 12.1875 2.5 12.1875C2.74864 12.1875 2.9871 12.0887 3.16291 11.9129C3.33873 11.7371 3.4375 11.4986 3.4375 11.25V6.30078L5.28984 6.91797C4.71497 8.01836 4.54413 9.28549 4.80707 10.4988C5.07001 11.7122 5.75007 12.7949 6.72891 13.5586C5.44799 14.1902 4.36393 15.1598 3.59375 16.3625C3.52439 16.4656 3.47622 16.5814 3.45202 16.7033C3.42783 16.8252 3.4281 16.9506 3.45282 17.0724C3.47754 17.1941 3.52622 17.3098 3.59602 17.4125C3.66582 17.5153 3.75535 17.6032 3.85942 17.6711C3.96348 17.739 4.08 17.7855 4.2022 17.8079C4.32439 17.8304 4.44984 17.8283 4.57123 17.8018C4.69262 17.7754 4.80754 17.7251 4.90932 17.6538C5.01109 17.5825 5.09768 17.4917 5.16406 17.3867C6.27891 15.6711 8.04687 14.6875 10 14.6875C11.9531 14.6875 13.7211 15.6711 14.8398 17.3867C14.9062 17.4917 14.9928 17.5825 15.0946 17.6538C15.1964 17.7251 15.3113 17.7754 15.4327 17.8018C15.5541 17.8283 15.6795 17.8304 15.8017 17.8079C15.9239 17.7855 16.0404 17.739 16.1445 17.6711C16.2486 17.6032 16.3381 17.5153 16.4079 17.4125C16.4777 17.3098 16.5264 17.1941 16.5511 17.0724C16.5758 16.9506 16.5761 16.8252 16.5519 16.7033C16.5277 16.5814 16.4795 16.4656 16.4102 16.3625C15.6392 15.1584 14.5537 14.188 13.2711 13.5563C14.2499 12.7926 14.93 11.7098 15.1929 10.4965C15.4559 9.28314 15.285 8.01601 14.7102 6.91562L17.7961 5.88672C17.9825 5.82435 18.1446 5.70495 18.2595 5.5454C18.3743 5.38586 18.4361 5.19424 18.4361 4.99766C18.4361 4.80107 18.3743 4.60945 18.2595 4.44991C18.1446 4.29037 17.9825 4.17097 17.7961 4.10859V4.11094ZM10 3.48594L14.5352 5L10 6.51172L5.46875 5L10 3.48594ZM13.4375 9.375C13.4376 9.90893 13.3133 10.4355 13.0745 10.9131C12.8357 11.3907 12.4889 11.806 12.0617 12.1262C11.6345 12.4465 11.1385 12.6628 10.6131 12.758C10.0878 12.8533 9.54743 12.8248 9.03497 12.6749C8.52251 12.525 8.05201 12.2578 7.66077 11.8945C7.26954 11.5311 6.96832 11.0816 6.781 10.5816C6.59367 10.0816 6.5254 9.54489 6.58158 9.01392C6.63777 8.48295 6.81687 7.97237 7.10469 7.52266L9.70391 8.38906C9.89601 8.45367 10.104 8.45367 10.2961 8.38906L12.8953 7.52266C13.2498 8.07538 13.438 8.71835 13.4375 9.375Z" fill="#858887"/>
</svg>
