<svg width="25" height="24" viewBox="0 0 25 24" fill="none" xmlns="http://www.w3.org/2000/svg">
<path d="M12.5 2.00098C6.98 2.00098 2.5 6.48098 2.5 12.001C2.5 17.521 6.98 22.001 12.5 22.001C18.02 22.001 22.5 17.521 22.5 12.001C22.5 6.48098 18.02 2.00098 12.5 2.00098ZM20.43 11.001H13.5V4.07098C17.11 4.52098 19.98 7.39098 20.43 11.001ZM4.5 12.001C4.5 7.93098 7.56 4.56098 11.5 4.07098V19.931C7.56 19.441 4.5 16.071 4.5 12.001ZM13.5 19.931V13.001H20.43C19.98 16.611 17.11 19.481 13.5 19.931Z" fill="#656867"/>
</svg>
