<svg width="24" height="24" viewBox="0 0 24 24" fill="none" xmlns="http://www.w3.org/2000/svg">
<path d="M16.24 7.76195C15.07 6.59195 13.54 6.00195 12 6.00195V12.002L7.76 16.242C10.1 18.582 13.9 18.582 16.25 16.242C18.59 13.902 18.59 10.102 16.24 7.76195ZM12 2.00195C6.48 2.00195 2 6.48195 2 12.002C2 17.522 6.48 22.002 12 22.002C17.52 22.002 22 17.522 22 12.002C22 6.48195 17.52 2.00195 12 2.00195ZM12 20.002C7.58 20.002 4 16.422 4 12.002C4 7.58195 7.58 4.00195 12 4.00195C16.42 4.00195 20 7.58195 20 12.002C20 16.422 16.42 20.002 12 20.002Z" fill="#FF5E57"/>
</svg>
