<svg width="20" height="20" viewBox="0 0 20 20" fill="none" xmlns="http://www.w3.org/2000/svg">
<path d="M18.311 16.4063C17.2398 14.5263 15.5673 13.0615 13.5625 12.2477C14.5595 11.5 15.2959 10.4575 15.6675 9.26804C16.039 8.07855 16.0269 6.8023 15.6328 5.62007C15.2388 4.43784 14.4827 3.40958 13.4718 2.68092C12.4608 1.95227 11.2462 1.56017 10 1.56017C8.75386 1.56017 7.53927 1.95227 6.52832 2.68092C5.51737 3.40958 4.7613 4.43784 4.36723 5.62007C3.97315 6.8023 3.96104 8.07855 4.33261 9.26804C4.70418 10.4575 5.44059 11.5 6.43754 12.2477C4.43279 13.0615 2.76022 14.5263 1.6891 16.4063C1.62273 16.513 1.57849 16.632 1.55902 16.7561C1.53955 16.8803 1.54524 17.0071 1.57575 17.129C1.60627 17.2509 1.66099 17.3655 1.73665 17.4658C1.81231 17.5661 1.90738 17.6503 2.0162 17.7131C2.12502 17.776 2.24537 17.8163 2.3701 17.8318C2.49482 17.8472 2.62138 17.8374 2.74224 17.8029C2.8631 17.7685 2.9758 17.7101 3.07363 17.6312C3.17147 17.5523 3.25245 17.4546 3.31175 17.3438C4.72738 14.8969 7.22738 13.4375 10 13.4375C12.7727 13.4375 15.2727 14.8977 16.6883 17.3438C16.8168 17.5504 17.0207 17.699 17.2568 17.7581C17.4929 17.8172 17.7427 17.7822 17.9534 17.6604C18.1641 17.5387 18.3193 17.3397 18.386 17.1057C18.4527 16.8717 18.4258 16.6208 18.311 16.4063ZM5.93753 7.50002C5.93753 6.69653 6.1758 5.91109 6.62219 5.24301C7.06858 4.57494 7.70306 4.05424 8.44538 3.74676C9.18771 3.43928 10.0045 3.35882 10.7926 3.51558C11.5806 3.67233 12.3045 4.05924 12.8727 4.6274C13.4408 5.19555 13.8277 5.91941 13.9845 6.70746C14.1412 7.49551 14.0608 8.31234 13.7533 9.05467C13.4458 9.79699 12.9251 10.4315 12.257 10.8779C11.589 11.3243 10.8035 11.5625 10 11.5625C8.92297 11.5613 7.89038 11.1329 7.12878 10.3713C6.36719 9.60967 5.93878 8.57708 5.93753 7.50002Z" fill="#656867"/>
</svg>
