<svg width="20" height="20" viewBox="0 0 20 20" fill="none" xmlns="http://www.w3.org/2000/svg">
<path d="M17.3125 3H3.5625C3.1481 3 2.75067 3.16462 2.45765 3.45765C2.16462 3.75067 2 4.1481 2 4.5625V12.6875C2 13.1019 2.16462 13.4993 2.45765 13.7924C2.75067 14.0854 3.1481 14.25 3.5625 14.25H17.3125C17.7269 14.25 18.1243 14.0854 18.4174 13.7924C18.7104 13.4993 18.875 13.1019 18.875 12.6875V4.5625C18.875 4.1481 18.7104 3.75067 18.4174 3.45765C18.1243 3.16462 17.7269 3 17.3125 3ZM17 12.375H3.875V4.875H17V12.375ZM18.875 16.4375C18.875 16.6861 18.7762 16.9246 18.6004 17.1004C18.4246 17.2762 18.1861 17.375 17.9375 17.375H2.9375C2.68886 17.375 2.4504 17.2762 2.27459 17.1004C2.09877 16.9246 2 16.6861 2 16.4375C2 16.1889 2.09877 15.9504 2.27459 15.7746C2.4504 15.5988 2.68886 15.5 2.9375 15.5H17.9375C18.1861 15.5 18.4246 15.5988 18.6004 15.7746C18.7762 15.9504 18.875 16.1889 18.875 16.4375ZM8.5625 10.1875V7.0625C8.56244 6.89512 8.6072 6.73079 8.69211 6.58655C8.77703 6.44232 8.89901 6.32345 9.04539 6.24228C9.19177 6.16112 9.35721 6.12063 9.52453 6.12501C9.69185 6.12939 9.85494 6.17848 9.99688 6.26719L12.4969 7.82969C12.6318 7.91393 12.7432 8.03113 12.8203 8.17027C12.8975 8.30941 12.938 8.46589 12.938 8.625C12.938 8.78411 12.8975 8.94059 12.8203 9.07973C12.7432 9.21887 12.6318 9.33607 12.4969 9.42031L9.99688 10.9828C9.85494 11.0715 9.69185 11.1206 9.52453 11.125C9.35721 11.1294 9.19177 11.0889 9.04539 11.0077C8.89901 10.9266 8.77703 10.8077 8.69211 10.6634C8.6072 10.5192 8.56244 10.3549 8.5625 10.1875Z" fill="#858887"/>
</svg>
