<svg width="22" height="22" viewBox="0 0 22 22" fill="none" xmlns="http://www.w3.org/2000/svg">
<path d="M11 6.6C14.1009 6.6 16.8664 8.304 18.2164 11C16.8664 13.696 14.1009 15.4 11 15.4C7.89909 15.4 5.13364 13.696 3.78364 11C5.13364 8.304 7.89909 6.6 11 6.6ZM11 5C6.90909 5 3.41545 7.488 2 11C3.41545 14.512 6.90909 17 11 17C15.0909 17 18.5845 14.512 20 11C18.5845 7.488 15.0909 5 11 5ZM11 9C12.1291 9 13.0455 9.896 13.0455 11C13.0455 12.104 12.1291 13 11 13C9.87091 13 8.95455 12.104 8.95455 11C8.95455 9.896 9.87091 9 11 9ZM11 7.4C8.97091 7.4 7.31818 9.016 7.31818 11C7.31818 12.984 8.97091 14.6 11 14.6C13.0291 14.6 14.6818 12.984 14.6818 11C14.6818 9.016 13.0291 7.4 11 7.4Z" fill="#656867"/>
</svg>
