<svg width="24" height="25" viewBox="0 0 24 25" fill="none" xmlns="http://www.w3.org/2000/svg">
<path d="M19 3.82422H5C3.89 3.82422 3 4.72422 3 5.82422V19.8242C3 20.9242 3.89 21.8242 5 21.8242H19C20.1 21.8242 21 20.9242 21 19.8242V5.82422C21 4.72422 20.11 3.82422 19 3.82422ZM19 19.8242H5V7.82422H19V19.8242ZM12 11.3242C13.84 11.3242 15.48 12.2842 16.34 13.8242C15.48 15.3642 13.84 16.3242 12 16.3242C10.16 16.3242 8.52 15.3642 7.66 13.8242C8.52 12.2842 10.16 11.3242 12 11.3242ZM12 9.82422C9.27 9.82422 6.94 11.4842 6 13.8242C6.94 16.1642 9.27 17.8242 12 17.8242C14.73 17.8242 17.06 16.1642 18 13.8242C17.06 11.4842 14.73 9.82422 12 9.82422ZM12 15.3242C11.17 15.3242 10.5 14.6542 10.5 13.8242C10.5 12.9942 11.17 12.3242 12 12.3242C12.83 12.3242 13.5 12.9942 13.5 13.8242C13.5 14.6542 12.83 15.3242 12 15.3242Z" fill="#034C31"/>
</svg>
