<?xml version="1.0" encoding="utf-8"?><svg xmlns="http://www.w3.org/2000/svg" xmlns:xlink="http://www.w3.org/1999/xlink"><symbol viewBox="0 0 22 20" id="atm" xmlns="http://www.w3.org/2000/svg"><path fill-rule="evenodd" clip-rule="evenodd" d="m1.641 6.223 15.332-3.486-.213-.94a.498.498 0 0 0-.592-.376L1.799 4.666a.498.498 0 0 0-.375.594c.073.319.144.643.217.963Zm-.127-2.41L16.064.533a1.29 1.29 0 0 1 1.541.977l1.525 6.756h-.911l-.692-3.06L2.196 8.691l.949 4.195.085.372a.277.277 0 0 0 .332.21l.114-.026v.895l-.017.005a1.077 1.077 0 0 1-1.282-.812L.534 5.361A1.262 1.262 0 0 1 .7 4.384c.19-.303.466-.492.812-.57ZM5.29 8.509c-.71 0-1.289.583-1.289 1.295v8.405c0 .712.579 1.292 1.29 1.292h14.918c.71 0 1.291-.582 1.291-1.292V9.803c0-.712-.58-1.295-1.291-1.295H5.29Zm14.605 3.763V10.56a.197.197 0 0 0-.198-.199H15.88a.2.2 0 0 0-.199.199v1.71a.2.2 0 0 0 .199.2h3.817a.2.2 0 0 0 .198-.2Zm-2.814 5.187a.2.2 0 0 1-.2-.199v-.397a.2.2 0 0 1 .2-.2h2.613a.2.2 0 0 1 .198.2v.397a.2.2 0 0 1-.198.199h-2.613Zm-3.647 0a.2.2 0 0 1-.198-.199v-.395c0-.111.09-.199.198-.199h2.616a.2.2 0 0 1 .198.199v.395a.2.2 0 0 1-.198.199h-2.616Zm-3.645 0a.2.2 0 0 1-.198-.199v-.395c0-.111.09-.199.198-.199h2.616a.2.2 0 0 1 .198.199v.395a.2.2 0 0 1-.198.199H9.789Zm-3.644 0a.2.2 0 0 1-.198-.199v-.395c0-.111.09-.199.198-.199H8.76a.2.2 0 0 1 .199.199v.395a.2.2 0 0 1-.199.199H6.145Z"/></symbol><symbol viewBox="0 0 24 24" id="book" xmlns="http://www.w3.org/2000/svg"><path d="M21 4.002c-1.11-.35-2.33-.5-3.5-.5-1.95 0-4.05.4-5.5 1.5-1.45-1.1-3.55-1.5-5.5-1.5-1.95 0-4.05.4-5.5 1.5v14.65c0 .25.25.5.5.5.1 0 .15-.05.25-.05 1.35-.65 3.3-1.1 4.75-1.1 1.95 0 4.05.4 5.5 1.5 1.35-.85 3.8-1.5 5.5-1.5 1.65 0 3.35.3 4.75 1.05.1.05.15.05.25.05.25 0 .5-.25.5-.5v-14.6c-.6-.45-1.25-.75-2-1Zm0 13.5c-1.1-.35-2.3-.5-3.5-.5-1.7 0-4.15.65-5.5 1.5v-11.5c1.35-.85 3.8-1.5 5.5-1.5 1.2 0 2.4.15 3.5.5v11.5Z"/><path d="M17.5 9.502c.88 0 1.73.09 2.5.26v-1.52c-.79-.15-1.64-.24-2.5-.24-1.7 0-3.24.29-4.5.83v1.66c1.13-.64 2.7-.99 4.5-.99ZM13 11.492v1.66c1.13-.64 2.7-.99 4.5-.99.88 0 1.73.09 2.5.26v-1.52c-.79-.15-1.64-.24-2.5-.24-1.7 0-3.24.3-4.5.83ZM17.5 13.332c-1.7 0-3.24.29-4.5.83v1.66c1.13-.64 2.7-.99 4.5-.99.88 0 1.73.09 2.5.26v-1.52c-.79-.16-1.64-.24-2.5-.24Z"/></symbol><symbol viewBox="0 0 18 18" id="chart" xmlns="http://www.w3.org/2000/svg"><path d="M6 6.752H3v8.25h3v-8.25ZM15 9.752h-3v5.25h3v-5.25ZM10.5 3.002h-3v12h3v-12Z"/></symbol><symbol viewBox="0 0 24 24" id="check" xmlns="http://www.w3.org/2000/svg"><path d="M19.004 7.237a.814.814 0 0 1 0 1.157l-9.377 9.377a.814.814 0 0 1-1.158 0l-3.473-3.473a.814.814 0 0 1 0-1.157.814.814 0 0 1 1.158 0l2.894 2.894 8.798-8.798a.814.814 0 0 1 1.158 0Zm-1.745-1.753-8.211 8.21-2.307-2.306a1.657 1.657 0 0 0-2.34 0l-1.158 1.158a1.657 1.657 0 0 0 0 2.34l4.63 4.63a1.657 1.657 0 0 0 2.34 0L20.758 8.982a1.657 1.657 0 0 0 0-2.34l-1.158-1.158a1.657 1.657 0 0 0-2.34 0Z"/></symbol><symbol viewBox="0 0 24 24" id="check-list" xmlns="http://www.w3.org/2000/svg"><path fill-rule="evenodd" clip-rule="evenodd" d="M19.111 4H4.89C3.91 4 3.11 4.8 3.11 5.778v12.444c0 .978.8 1.778 1.778 1.778H19.11c.978 0 1.778-.8 1.778-1.778V5.778c0-.978-.8-1.778-1.778-1.778Zm0 14.222H4.89V5.778H19.11v12.444Z"/><path fill-rule="evenodd" clip-rule="evenodd" d="m18.587 10.596-1.263-1.263-2.817 2.818-1.254-1.262L12 12.142l2.507 2.525 4.08-4.071Z"/><path d="M10.222 7.556H5.778v1.777h4.444V7.556ZM10.222 11.111H5.778v1.778h4.444V11.11ZM10.222 14.667H5.778v1.777h4.444v-1.777Z"/></symbol><symbol viewBox="0 0 25 24" id="check2" xmlns="http://www.w3.org/2000/svg"><path d="M12.5 2.002c-5.52 0-10 4.48-10 10s4.48 10 10 10 10-4.48 10-10-4.48-10-10-10Zm-2 15-5-5 1.41-1.41 3.59 3.58 7.59-7.59 1.41 1.42-9 9Z"/></symbol><symbol viewBox="0 0 24 24" id="check3" xmlns="http://www.w3.org/2000/svg"><path d="m8.795 15.877-4.17-4.17-1.42 1.41 5.59 5.59 12-12-1.41-1.41-10.59 10.58Z"/></symbol><symbol viewBox="0 0 24 24" id="class" xmlns="http://www.w3.org/2000/svg"><path d="M18 2H6c-1.1 0-2 .9-2 2v16c0 1.1.9 2 2 2h12c1.1 0 2-.9 2-2V4c0-1.1-.9-2-2-2ZM9 4h2v5l-1-.75L9 9V4Zm9 16H6V4h1v9l3-2.25L13 13V4h5v16Z"/></symbol><symbol viewBox="0 0 20 20" id="clock" xmlns="http://www.w3.org/2000/svg"><path d="M10.402 6.905H9.195v4.755l3.822 2.259.603-.975-3.218-1.878v-4.16ZM14.294 2 18 5.047l-1.03 1.216-3.709-3.045L14.294 2ZM5.706 2l1.031 1.217L3.03 6.263 2 5.046 5.706 2ZM10 3.736c-3.999 0-7.241 3.193-7.241 7.132C2.759 14.806 6 18 9.999 18c4 0 7.242-3.194 7.242-7.132 0-3.939-3.243-7.132-7.241-7.132Zm0 12.68c-3.106 0-5.632-2.49-5.632-5.548 0-3.06 2.526-5.548 5.632-5.548 3.105 0 5.631 2.489 5.631 5.548S13.105 16.415 10 16.415Z"/></symbol><symbol viewBox="0 0 24 24" id="close" xmlns="http://www.w3.org/2000/svg"><path d="m19 6.412-1.41-1.41-5.59 5.59-5.59-5.59L5 6.412l5.59 5.59L5 17.592l1.41 1.41 5.59-5.59 5.59 5.59 1.41-1.41-5.59-5.59L19 6.412Z"/></symbol><symbol viewBox="0 0 25 24" id="cup" xmlns="http://www.w3.org/2000/svg"><path d="M21.226 2.425v.426a4.822 4.822 0 0 1-1.415 3.424c-.137.13-.278.25-.422.364V2.425h1.837ZM4.613 2.425V6.64A4.85 4.85 0 0 1 2.775 2.85v-.426h1.838ZM13.279 15.262v3.354h-2.557v-3.354a7.027 7.027 0 0 0 2.557 0ZM17.766 22.787a.51.51 0 0 1-.418.215H6.653a.52.52 0 0 1-.493-.676l.81-2.569a.52.52 0 0 1 .496-.36h9.069a.52.52 0 0 1 .496.36l.81 2.569a.51.51 0 0 1-.075.46ZM5.394 1.002v6.99a6.606 6.606 0 0 0 13.212 0v-6.99H5.394Zm10.468 4.886L13.85 7.354l.77 2.369a.396.396 0 0 1-.373.512.39.39 0 0 1-.229-.074L12 8.695 9.983 10.16a.392.392 0 0 1-.602-.438l.77-2.369-2.013-1.466a.39.39 0 0 1 .227-.707h2.494l.77-2.37a.39.39 0 0 1 .743 0l.77 2.37h2.494a.39.39 0 0 1 .226.707Z"/><path d="M13.017 7.323 13.5 8.82l-1.27-.923a.395.395 0 0 0-.461 0l-1.27.923.484-1.497a.388.388 0 0 0-.14-.434l-1.275-.927h1.575a.394.394 0 0 0 .371-.27L12 4.197l.485 1.497a.395.395 0 0 0 .371.27h1.575l-1.274.926a.388.388 0 0 0-.14.434Z"/></symbol><symbol viewBox="0 0 24 24" id="date" xmlns="http://www.w3.org/2000/svg"><path d="M7 11h2v2H7v-2Zm14-5v14c0 1.1-.9 2-2 2H5a2 2 0 0 1-2-2l.01-14c0-1.1.88-2 1.99-2h1V2h2v2h8V2h2v2h1c1.1 0 2 .9 2 2ZM5 8h14V6H5v2Zm14 12V10H5v10h14Zm-4-7h2v-2h-2v2Zm-4 0h2v-2h-2v2Z"/></symbol><symbol viewBox="0 0 23 21" id="down" xmlns="http://www.w3.org/2000/svg"><path d="M6.445 8.267a1.112 1.112 0 1 1 1.573-1.574l2.544 2.546V2.3a1.11 1.11 0 1 1 2.222 0v6.94l2.546-2.547a1.112 1.112 0 1 1 1.573 1.574l-4.442 4.442a1.11 1.11 0 0 1-1.574 0L6.445 8.267Zm14.113 2.546h-3.332a1.11 1.11 0 1 0 0 2.22h2.962v5.183H3.157v-5.182H6.12a1.11 1.11 0 0 0 0-2.222H2.788a1.851 1.851 0 0 0-1.85 1.852v5.923a1.851 1.851 0 0 0 1.85 1.85h17.77a1.85 1.85 0 0 0 1.85-1.85v-5.923a1.851 1.851 0 0 0-1.85-1.851Zm-1.851 4.812a1.48 1.48 0 1 0-2.962 0 1.48 1.48 0 0 0 2.962 0Z"/></symbol><symbol viewBox="0 0 25 24" id="down2" xmlns="http://www.w3.org/2000/svg"><path d="M13.09 1a4 4 0 0 1 2.829 1.172l4.242 4.242a4 4 0 0 1 1.172 2.828V19a4 4 0 0 1-4 4h-10a4 4 0 0 1-4-4V5a4 4 0 0 1 4-4h5.758ZM7.334 3a2 2 0 0 0-2 2v14a2 2 0 0 0 2 2h10a2 2 0 0 0 2-2V9.242A2 2 0 0 0 18.898 8h-3.565a1 1 0 0 1-1-1V3.435A2 2 0 0 0 13.091 3H7.333Zm5 7.5a1 1 0 0 1 1 1v3.086l.293-.293a1 1 0 1 1 1.414 1.414l-2 2a1 1 0 0 1-1.414 0l-2-2-.068-.076a1 1 0 0 1 1.406-1.406l.076.068.293.293V11.5a1 1 0 0 1 1-1Z"/></symbol><symbol viewBox="0 0 24 24" id="download" xmlns="http://www.w3.org/2000/svg"><path d="M19 9.5h-4v-6H9v6H5l7 7 7-7Zm-8 2v-6h2v6h1.17L12 13.67 9.83 11.5H11Zm-6 7h14v2H5v-2Z"/></symbol><symbol viewBox="0 0 24 24" id="dungluong" xmlns="http://www.w3.org/2000/svg"><path d="M16 9h-2.55V6h-2.9v3H8l4 4 4-4Zm3-6H4.99C3.88 3 3 3.9 3 5v14c0 1.1.88 2 1.99 2H19c1.1 0 2-.9 2-2V5c0-1.1-.9-2-2-2Zm0 16H5v-3h3.56c.69 1.19 1.97 2 3.45 2 1.48 0 2.75-.81 3.45-2H19v3Zm0-5h-4.99c0 1.1-.9 2-2 2s-2-.9-2-2H5l-.01-9H19v9Z"/></symbol><symbol viewBox="0 0 22 22" id="edit" xmlns="http://www.w3.org/2000/svg"><path d="m5.415 12.617.051-.107c.214-.43.55-.782.964-1.004l.103-.053c.405-.213.405-.817 0-1.035l-.103-.053a2.286 2.286 0 0 1-.964-1.004l-.05-.106a.548.548 0 0 0-.995 0l-.05.106c-.214.431-.551.782-.965 1.004l-.102.053c-.405.213-.405.817 0 1.035l.102.053c.414.222.751.573.964 1.004l.051.107a.548.548 0 0 0 .994 0ZM17.627 16.192l-.103-.054a2.286 2.286 0 0 1-.964-1.004l-.05-.106a.548.548 0 0 0-.995 0l-.05.106c-.214.431-.551.782-.965 1.004l-.102.053c-.405.214-.405.818 0 1.035l.102.053c.414.223.75.573.964 1.004l.051.107a.548.548 0 0 0 .994 0l.051-.107c.213-.43.55-.781.964-1.004l.103-.053c.405-.213.405-.817 0-1.034ZM5.74 7.06l.136.072c.426.226.768.582.985 1.026l.068.142c.235.48.704.777 1.22.777A1.37 1.37 0 0 0 9.373 8.3l.069-.142c.217-.444.558-.8.985-1.026l.136-.071c.461-.244.747-.733.747-1.27a1.44 1.44 0 0 0-.747-1.275l-.136-.07a2.293 2.293 0 0 1-.985-1.027l-.069-.142A1.36 1.36 0 0 0 8.15 2.5c-.52 0-.985.298-1.224.777l-.068.142c-.218.444-.559.8-.985 1.026l-.137.071a1.43 1.43 0 0 0-.746 1.275c0 .542.285 1.026.746 1.274l.004-.004Zm.58-1.358.136-.071A3.585 3.585 0 0 0 8 4.023l.068-.142s.026-.053.081-.053c.056 0 .077.035.081.053l.069.142a3.585 3.585 0 0 0 1.544 1.608l.136.07s.051.028.051.085c0 .058-.038.08-.051.085l-.136.07c-.67.356-1.203.911-1.544 1.608l-.069.142s-.025.054-.08.054a.082.082 0 0 1-.082-.054L8 7.55a3.585 3.585 0 0 0-1.544-1.607l-.137-.071s-.05-.027-.05-.085c0-.057.038-.08.05-.084ZM18.48 6.115l-.828-.862a1.718 1.718 0 0 0-1.245-.537c-.47 0-.913.191-1.246.537l-8.859 9.224-.012.022a.691.691 0 0 0-.124.191v.01l-1.233 3.06a1.29 1.29 0 0 0 .269 1.38 1.177 1.177 0 0 0 1.33.253l2.88-1.314.017-.009a.636.636 0 0 0 .175-.124c.004-.005.012-.01.021-.014l8.859-9.224c.333-.346.516-.808.516-1.296 0-.489-.183-.95-.516-1.297h-.004ZM9.169 16.52l-1.51-1.572 6.636-6.91 1.51 1.572-6.636 6.91Zm8.406-8.753-.865.901-1.51-1.572.866-.901a.478.478 0 0 1 .682 0l.827.861a.515.515 0 0 1 0 .711Z"/></symbol><symbol viewBox="0 0 24 24" id="edit2" xmlns="http://www.w3.org/2000/svg"><path d="m15 16.002-4 4h10v-4h-6ZM12.06 7.192 3 16.252v3.75h3.75l9.06-9.06-3.75-3.75Zm-6.14 10.81H5v-.92l7.06-7.06.92.92-7.06 7.06ZM18.71 8.042a.996.996 0 0 0 0-1.41l-2.34-2.34a1.001 1.001 0 0 0-1.41 0l-1.83 1.83 3.75 3.75 1.83-1.83Z"/></symbol><symbol viewBox="0 0 24 24" id="email" xmlns="http://www.w3.org/2000/svg"><path d="M22 6c0-1.1-.9-2-2-2H4c-1.1 0-2 .9-2 2v12c0 1.1.9 2 2 2h16c1.1 0 2-.9 2-2V6Zm-2 0-8 5-8-5h16Zm0 12H4V8l8 5 8-5v10Z"/></symbol><symbol viewBox="0 0 22 22" id="file" xmlns="http://www.w3.org/2000/svg"><path d="M14.578 3.5c.602 0 1.09.477 1.09 1.064v3.784h2.243c.59 0 1.072.46 1.089 1.034v5.13c0 2.202-1.827 3.988-4.081 3.988H7.08C4.827 18.5 3 16.714 3 14.511V4.564C3 3.977 3.488 3.5 4.09 3.5h10.488Zm-.323 1.38H4.412v9.631c0 1.427 1.172 2.585 2.625 2.608h7.882c1.474 0 2.669-1.167 2.669-2.608V9.728h-1.922l.001 4.305c0 .381-.316.69-.706.69a.699.699 0 0 1-.706-.664V4.88Zm-2.733 8.463c.39 0 .706.31.706.69a.698.698 0 0 1-.68.69H7.261a.698.698 0 0 1-.706-.69c0-.372.302-.676.68-.69h4.287Zm0-3.033c.39 0 .706.309.706.69a.697.697 0 0 1-.68.69H7.261a.698.698 0 0 1-.706-.69c0-.373.302-.676.68-.69h4.287Zm0-3.033c.39 0 .706.309.706.69a.698.698 0 0 1-.68.69H7.261a.698.698 0 0 1-.706-.69c0-.373.302-.676.68-.69h4.287Z"/></symbol><symbol viewBox="0 0 24 25" id="file-line" xmlns="http://www.w3.org/2000/svg"><path d="M18 20.25H6v-3H4v3c0 1.1.9 2 2 2h12c1.1 0 2-.9 2-2v-3h-2v3ZM6 4.25h7v5h5v2h2v-3l-6-6H6c-1.1 0-2 .9-2 2v7h2v-7ZM15 13.25H9v2h6v-2ZM23 13.25h-6v2h6v-2ZM7 13.25H1v2h6v-2Z"/></symbol><symbol viewBox="0 0 21 22" id="file-slide" xmlns="http://www.w3.org/2000/svg"><path d="M9.857 12.926a1.16 1.16 0 0 0-1.933 0l-1.45 2.172-.647-.975a1.16 1.16 0 0 0-1.94.017L.185 19.9a1.16 1.16 0 0 0 .975 1.788h12.37a1.16 1.16 0 0 0 .967-1.804l-4.639-6.958Zm-6.571 6.442 1.594-2.484.633.948a1.16 1.16 0 0 0 1.933 0l1.45-2.172 2.467 3.708H3.286ZM19.762 6.564 14.35 1.152a1.16 1.16 0 0 0-.82-.34H4.252a1.933 1.933 0 0 0-1.933 1.933v8.118a1.16 1.16 0 1 0 2.32 0V3.132h7.344V7.77a1.16 1.16 0 0 0 1.16 1.16h4.64v10.437a1.16 1.16 0 1 0 0 2.32h.386a1.933 1.933 0 0 0 1.933-1.933V7.385a1.16 1.16 0 0 0-.34-.821Zm-5.46-2.176 2.224 2.223h-2.223V4.388Z"/></symbol><symbol viewBox="0 0 20 20" id="filter" xmlns="http://www.w3.org/2000/svg"><path d="M1.467 15.333c0 .294.24.534.533.534h2.187a2.668 2.668 0 0 0 5.226 0H18a.535.535 0 0 0 0-1.067H9.413a2.668 2.668 0 0 0-5.226 0H2a.535.535 0 0 0-.533.533Zm3.733 0a1.6 1.6 0 1 1 3.2 0 1.6 1.6 0 0 1-3.2 0ZM11.6 10a1.6 1.6 0 1 1 3.2 0 1.6 1.6 0 0 1-3.2 0Zm1.6-2.667c-1.29 0-2.367.917-2.613 2.134H2a.535.535 0 0 0-.533.533c0 .293.24.533.533.533h8.587a2.668 2.668 0 0 0 5.226 0H18c.293 0 .533-.24.533-.533A.535.535 0 0 0 18 9.467h-2.187A2.668 2.668 0 0 0 13.2 7.333ZM7.867 6.267a1.6 1.6 0 1 1 0-3.2 1.6 1.6 0 0 1 0 3.2Zm2.613-2.134a2.668 2.668 0 0 0-5.227 0H2a.535.535 0 0 0-.533.534c0 .293.24.533.533.533h3.253a2.668 2.668 0 0 0 5.227 0H18c.293 0 .533-.24.533-.533A.535.535 0 0 0 18 4.133h-7.52Z"/></symbol><symbol viewBox="0 0 25 25" id="folder" xmlns="http://www.w3.org/2000/svg"><path d="M1.5 17.5v-10a4 4 0 0 1 4-4h4.395a4 4 0 0 1 3.328 1.781l.218.328a2 2 0 0 0 1.664.891H19.5a4 4 0 0 1 4 4v7a4 4 0 0 1-4 4h-14a4 4 0 0 1-4-4Zm2 0a2 2 0 0 0 2 2h14a2 2 0 0 0 2-2v-7a2 2 0 0 0-2-2h-4.395a4 4 0 0 1-3.328-1.781l-.218-.328A2 2 0 0 0 9.895 5.5H5.5a2 2 0 0 0-2 2v10Z"/></symbol><symbol viewBox="0 0 20 20" id="hat" xmlns="http://www.w3.org/2000/svg"><g clip-path="url(#aya)"><path d="m19.515 6.054-9.063-5a.938.938 0 0 0-.906 0l-9.062 5a.937.937 0 0 0 0 1.64l1.703.938v3.732c0 .384.14.754.397 1.04 1.058 1.182 3.43 3.159 7.415 3.159a10.695 10.695 0 0 0 3.125-.45v2.012a.937.937 0 1 0 1.875 0v-2.803a9.338 9.338 0 0 0 2.415-1.915c.257-.285.398-.656.398-1.04V8.636l1.703-.938a.937.937 0 0 0 0-1.64v-.004ZM9.999 2.946l7.122 3.93-2.59 1.43a.153.153 0 0 1-.015-.01l-4.062-2.242a.937.937 0 0 0-.906 1.64l3.047 1.68-2.596 1.431-7.122-3.93L10 2.946Zm0 11.742c-3.158 0-5.05-1.49-5.937-2.443V9.667l5.484 3.026a.938.938 0 0 0 .906 0l2.672-1.47v2.908a8.631 8.631 0 0 1-3.125.557Zm5.938-2.443c-.288.308-.601.59-.938.844v-2.902l.938-.517v2.575Z"/></g><defs><clipPath id="aya"><path d="M0 0h20v20H0z"/></clipPath></defs></symbol><symbol viewBox="0 0 24 24" id="history" xmlns="http://www.w3.org/2000/svg"><path d="M13.5 3a9 9 0 0 0-9 9h-3l3.89 3.89.07.14L9.5 12h-3c0-3.87 3.13-7 7-7s7 3.13 7 7-3.13 7-7 7c-1.93 0-3.68-.79-4.94-2.06l-1.42 1.42A8.954 8.954 0 0 0 13.5 21a9 9 0 0 0 0-18Zm-1 5v5l4.25 2.52.77-1.28L14 12.15V8h-1.5Z"/></symbol><symbol viewBox="0 0 22 22" id="home" xmlns="http://www.w3.org/2000/svg"><path d="M18.332 18.301V8.171l-7.333-4.475-7.334 4.475V18.3h3.667v-2.563A3.76 3.76 0 0 1 8.406 13.1a3.636 3.636 0 0 1 2.593-1.092c.972 0 1.905.393 2.592 1.092a3.76 3.76 0 0 1 1.074 2.637V18.3h3.667Zm-5.5 1.864v-4.427a1.88 1.88 0 0 0-.537-1.319A1.818 1.818 0 0 0 11 13.873c-.487 0-.953.197-1.297.546a1.88 1.88 0 0 0-.537 1.319v4.427h-5.5c-.486 0-.952-.196-1.296-.546a1.88 1.88 0 0 1-.537-1.318V8.171c0-.322.082-.639.238-.919.156-.28.38-.514.652-.68l7.333-4.474a1.81 1.81 0 0 1 1.887 0l7.333 4.474c.272.166.496.4.652.68.156.28.238.597.238.919V18.3c0 .495-.193.969-.537 1.318-.343.35-.81.546-1.296.546h-5.5Z"/></symbol><symbol viewBox="0 0 24 24" id="info" xmlns="http://www.w3.org/2000/svg"><path d="M11 7h2v2h-2V7Zm0 4h2v6h-2v-6Zm1-9C6.48 2 2 6.48 2 12s4.48 10 10 10 10-4.48 10-10S17.52 2 12 2Zm0 18c-4.41 0-8-3.59-8-8s3.59-8 8-8 8 3.59 8 8-3.59 8-8 8Z"/></symbol><symbol viewBox="0 0 22 22" id="like" xmlns="http://www.w3.org/2000/svg"><path d="M6.417 20.167h-2.75a1.833 1.833 0 0 1-1.834-1.834v-6.416a1.833 1.833 0 0 1 1.834-1.834h2.75m6.416-1.833V4.583a2.75 2.75 0 0 0-2.75-2.75l-3.666 8.25v10.084h10.34a1.833 1.833 0 0 0 1.833-1.559l1.265-8.25a1.833 1.833 0 0 0-1.833-2.108h-5.189Z"/></symbol><symbol viewBox="0 0 21 20" id="location" xmlns="http://www.w3.org/2000/svg"><path d="M10.5 2C7.46 2 5 4.504 5 7.6 5 11.8 10.5 18 10.5 18S16 11.8 16 7.6C16 4.504 13.54 2 10.5 2ZM6.571 7.6c0-2.208 1.76-4 3.929-4 2.169 0 3.929 1.792 3.929 4 0 2.304-2.263 5.752-3.929 7.904C8.866 13.368 6.571 9.88 6.571 7.6Z"/><path d="M10.5 9.6c1.085 0 1.964-.895 1.964-2s-.88-2-1.964-2c-1.085 0-1.964.895-1.964 2s.88 2 1.964 2Z"/></symbol><symbol viewBox="0 0 24 24" id="login" xmlns="http://www.w3.org/2000/svg"><path d="m11 7.002-1.4 1.4 2.6 2.6H2v2h10.2l-2.6 2.6 1.4 1.4 5-5-5-5Zm9 12h-8v2h8c1.1 0 2-.9 2-2v-14c0-1.1-.9-2-2-2h-8v2h8v14Z"/></symbol><symbol viewBox="0 0 16 22" id="look" xmlns="http://www.w3.org/2000/svg"><g clip-path="url(#bfa)"><path fill-rule="evenodd" clip-rule="evenodd" d="M14.075 9.12h-.666V5.651C13.41 2.544 10.976 0 8 0 5.025 0 2.59 2.544 2.59 5.652v3.467h-.666C.866 9.12 0 10.024 0 11.13v8.861C0 21.096.866 22 1.924 22h12.151C15.133 22 16 21.096 16 19.99L16 11.13c0-1.106-.866-2.01-1.925-2.01ZM4.993 5.651C4.993 3.924 6.347 2.51 8 2.51c1.654 0 3.007 1.413 3.007 3.14V9.12H4.993V5.652Zm3.817 9.763v2.598c0 .466-.363.847-.81.847-.445 0-.81-.38-.81-.847v-2.598a1.701 1.701 0 0 1-.808-1.463c0-.935.724-1.691 1.618-1.691.895 0 1.619.756 1.619 1.69 0 .625-.326 1.172-.809 1.464Z"/></g><defs><clipPath id="bfa"><path d="M0 0h16v22H0z"/></clipPath></defs></symbol><symbol viewBox="0 0 20 20" id="menu" xmlns="http://www.w3.org/2000/svg"><path d="M17.813 10a.938.938 0 0 1-.938.938H3.125a.938.938 0 0 1 0-1.876h13.75a.937.937 0 0 1 .938.938ZM3.124 5.937h13.75a.937.937 0 0 0 0-1.875H3.125a.937.937 0 1 0 0 1.875Zm13.75 8.125H3.125a.938.938 0 0 0 0 1.876h13.75a.938.938 0 0 0 0-1.876Z"/></symbol><symbol viewBox="0 0 24 24" id="neo" xmlns="http://www.w3.org/2000/svg"><path d="M11 6.002H9v-2h2v2Zm4-2h-2v2h2v-2Zm-6 10h2v-2H9v2Zm10-4v-2h-2v2h2Zm0 4v-2h-2v2h2Zm-6 0h2v-2h-2v2Zm6-10h-2v2h2v-2Zm-6 4v-2h-2v2h2Zm-6 2v-2h2v-2H7v-2H5v16h2v-8h2v-2H7Zm8 2h2v-2h-2v2Zm-4-2v2h2v-2h-2Zm-2-2v2h2v-2H9Zm4 2h2v-2h-2v2Zm2-4v2h2v-2h-2Z"/></symbol><symbol viewBox="0 0 10 18" id="next" xmlns="http://www.w3.org/2000/svg"><path d="M.453 17.297a1.124 1.124 0 0 1 0-1.594l6.702-6.702L.453 2.297A1.127 1.127 0 1 1 2.047.703l7.5 7.5a1.125 1.125 0 0 1 0 1.594l-7.5 7.5a1.125 1.125 0 0 1-1.594 0Z"/></symbol><symbol viewBox="0 0 16 17" id="notifi" xmlns="http://www.w3.org/2000/svg"><path d="m15.129 9.606-1.267-4.558a6.214 6.214 0 0 0-12.053.316l-.98 4.41a3.333 3.333 0 0 0 3.253 4.057h.743a3.333 3.333 0 0 0 6.533 0h.56a3.334 3.334 0 0 0 3.211-4.225Zm-7.037 5.558a2 2 0 0 1-1.878-1.333H9.97a2 2 0 0 1-1.877 1.333Zm5.417-3.456a1.986 1.986 0 0 1-1.593.79H4.082a2 2 0 0 1-1.952-2.434l.98-4.411a4.88 4.88 0 0 1 9.467-.248l1.267 4.557a1.985 1.985 0 0 1-.335 1.746Z"/></symbol><symbol viewBox="0 0 25 25" id="pages" xmlns="http://www.w3.org/2000/svg"><path d="M2.5 16.5v-9a1 1 0 0 1 2 0v9a5 5 0 0 0 5 5h7a1 1 0 1 1 0 2h-7a7 7 0 0 1-7-7Zm3 0v-11a4 4 0 0 1 4-4h4.62a4 4 0 0 1 3.037 1.396l4.38 5.11a4.001 4.001 0 0 1 .963 2.603V16.5a4 4 0 0 1-4 4h-9a4 4 0 0 1-4-4Zm2 0a2 2 0 0 0 2 2h9a2 2 0 0 0 2-2v-5.89a1.996 1.996 0 0 0-.481-1.301l-4.38-5.11A2 2 0 0 0 14.12 3.5H9.5a2 2 0 0 0-2 2v11Z"/></symbol><symbol viewBox="0 0 24 24" id="password" xmlns="http://www.w3.org/2000/svg"><path d="M2 16.002h20v2H2v-2Zm1.15-4.05.85-1.48.85 1.48 1.3-.75-.85-1.48H7v-1.5H5.3l.85-1.47-1.3-.75L4 7.472l-.85-1.47-1.3.75.85 1.47H1v1.5h1.7l-.85 1.48 1.3.75Zm6.7-.75 1.3.75.85-1.48.85 1.48 1.3-.75-.85-1.48H15v-1.5h-1.7l.85-1.47-1.3-.75-.85 1.47-.85-1.47-1.3.75.85 1.47H9v1.5h1.7l-.85 1.48ZM23 8.222h-1.7l.85-1.47-1.3-.75-.85 1.47-.85-1.47-1.3.75.85 1.47H17v1.5h1.7l-.85 1.48 1.3.75.85-1.48.85 1.48 1.3-.75-.85-1.48H23v-1.5Z"/></symbol><symbol viewBox="0 0 24 24" id="phone" xmlns="http://www.w3.org/2000/svg"><path d="m20.113 7.702-1 1c1.8 1.8 1.8 4.6 0 6.5l1 1c2.5-2.3 2.5-6.1 0-8.5Zm-2.1 2.1-1 1c.5.7.5 1.6 0 2.3l1 1c1.2-1.2 1.2-3 0-4.3Zm-4-8.8h-10c-1.1 0-2 .9-2 2v18c0 1.1.9 2 2 2h10c1.1 0 2-.9 2-2v-18c0-1.1-.9-2-2-2Zm0 19h-10v-16h10v16Z"/></symbol><symbol viewBox="0 0 22 22" id="play" xmlns="http://www.w3.org/2000/svg"><path d="M11.004 17.22c-.505 0-4.937-.008-6.207-.353a2.789 2.789 0 0 1-1.943-1.918 21.354 21.354 0 0 1-.354-3.945c0-1.261.11-2.557.337-3.818.252-1.018.992-1.784 1.951-2.053 1.279-.345 5.711-.353 6.216-.353.497 0 4.93.008 6.182.32A2.801 2.801 0 0 1 19.155 7.1c.008.017.008.034.008.06.227 1.278.345 2.573.337 3.86.008 1.262-.11 2.54-.337 3.793-.252 1.018-.992 1.784-1.951 2.053-1.27.345-5.703.353-6.208.353Zm0-10.758c-1.808 0-4.98.076-5.77.286a1.11 1.11 0 0 0-.757.782 19.789 19.789 0 0 0-.286 3.483 19.51 19.51 0 0 0 .303 3.566c.084.286.378.572.748.673.791.21 3.954.294 5.762.294 1.809 0 4.98-.075 5.77-.294a1.11 1.11 0 0 0 .757-.782c.194-1.102.303-2.28.295-3.449a19.084 19.084 0 0 0-.303-3.533c-.101-.37-.387-.656-.757-.765-.774-.193-3.945-.26-5.762-.26Z"/><path d="M9.44 14.133a.76.76 0 0 1-.42-.118.84.84 0 0 1-.42-.723v-4.55c0-.303.159-.58.42-.724a.836.836 0 0 1 .84 0l4.005 2.28c.26.151.429.429.429.732 0 .302-.16.58-.43.731l-4.003 2.28c-.135.05-.278.092-.42.092Zm.303-4.903v3.566l3.13-1.783-3.13-1.783Z"/></symbol><symbol viewBox="0 0 10 18" id="prev" xmlns="http://www.w3.org/2000/svg"><path d="M9.547.703a1.125 1.125 0 0 1 0 1.594L2.845 8.999l6.702 6.704a1.127 1.127 0 0 1-1.594 1.594l-7.5-7.5a1.125 1.125 0 0 1 0-1.594l7.5-7.5a1.125 1.125 0 0 1 1.594 0Z"/></symbol><symbol viewBox="0 0 25 24" id="refresh" xmlns="http://www.w3.org/2000/svg"><path d="M18.145 6.352a7.958 7.958 0 0 0-5.65-2.35c-4.42 0-7.99 3.58-7.99 8s3.57 8 7.99 8c3.73 0 6.84-2.55 7.73-6h-2.08a5.99 5.99 0 0 1-5.65 4c-3.31 0-6-2.69-6-6s2.69-6 6-6c1.66 0 3.14.69 4.22 1.78l-3.22 3.22h7v-7l-2.35 2.35Z"/></symbol><symbol viewBox="0 0 22 22" id="reply" xmlns="http://www.w3.org/2000/svg"><path d="M8.25 12.834 3.668 8.25l4.584-4.583"/><path d="M18.334 18.334v-6.417a3.667 3.667 0 0 0-3.667-3.667h-11"/></symbol><symbol viewBox="0 0 18 22" id="security" xmlns="http://www.w3.org/2000/svg"><path d="M17.244 3.566h-.046c-2.964 0-5.836-1.25-7.85-3.427-.186-.185-.533-.185-.695 0a10.744 10.744 0 0 1-7.85 3.427H.755a.49.49 0 0 0-.486.487v5.256c0 4.331 2.153 8.36 5.743 10.769l2.71 1.83c.069.046.161.092.277.092a.405.405 0 0 0 .278-.093l2.71-1.83A12.957 12.957 0 0 0 17.73 9.31V4.03a.501.501 0 0 0-.487-.463ZM9 15.794a5.01 5.01 0 0 1-5.002-5.002A5.01 5.01 0 0 1 9 5.789a5.01 5.01 0 0 1 5.002 5.003A5.01 5.01 0 0 1 9 15.794Z"/><path d="m10.459 8.661-2.154 2.362-.764-.833a.874.874 0 0 0-1.227-.047.874.874 0 0 0-.047 1.227L7.68 12.9a.841.841 0 0 0 .649.278.841.841 0 0 0 .648-.278l2.802-3.057a.874.874 0 0 0-.046-1.227c-.394-.324-.927-.301-1.274.046Z"/></symbol><symbol viewBox="0 0 24 24" id="send" xmlns="http://www.w3.org/2000/svg"><path d="m3.51 6.03 7.51 3.22-7.52-1 .01-2.22Zm7.5 8.72L3.5 17.97v-2.22l7.51-1ZM1.51 3l-.01 7 15 2-15 2 .01 7 20.99-9L1.51 3Z"/></symbol><symbol viewBox="0 0 16 16" id="star" xmlns="http://www.w3.org/2000/svg"><path d="m8.005 12.482-4.327 2.221L4.505 10 1 6.668l4.837-.685L8 1.703l2.163 4.28L15 6.668l-3.505 3.33.827 4.705-4.317-2.221Z"/></symbol><symbol viewBox="0 0 25 24" id="start" xmlns="http://www.w3.org/2000/svg"><path d="m15.09 7.412 3.58 3.59H6.5v2h12.17l-3.59 3.59 1.42 1.41 6-6-6-6-1.41 1.41ZM2.5 6.002v12h2v-12h-2Z"/></symbol><symbol viewBox="0 0 20 20" id="student" xmlns="http://www.w3.org/2000/svg"><path d="m17.796 4.11-7.5-2.5a.926.926 0 0 0-.592 0l-7.5 2.5a.937.937 0 0 0-.642.89v6.25a.937.937 0 0 0 1.875 0V6.3l1.853.618a5.306 5.306 0 0 0 1.439 6.64 7.84 7.84 0 0 0-3.135 2.805.937.937 0 1 0 1.57 1.024c1.115-1.716 2.883-2.7 4.836-2.7 1.953 0 3.721.984 4.84 2.7a.938.938 0 1 0 1.57-1.024 7.842 7.842 0 0 0-3.139-2.807 5.306 5.306 0 0 0 1.44-6.64l3.085-1.03a.938.938 0 0 0 0-1.777v.002ZM10 3.487 14.535 5 10 6.512 5.469 5 10 3.486Zm3.438 5.889a3.438 3.438 0 1 1-6.333-1.852l2.599.866c.192.065.4.065.592 0l2.6-.866c.354.552.542 1.195.541 1.852Z"/></symbol><symbol viewBox="0 0 22 22" id="suport" xmlns="http://www.w3.org/2000/svg"><path d="M20 7a2 2 0 0 1 2 2v4a2 2 0 0 1-2 2h-1.062A8.001 8.001 0 0 1 11 22v-2a6 6 0 0 0 6-6V8A6 6 0 1 0 5 8v7H2a2 2 0 0 1-2-2V9a2 2 0 0 1 2-2h1.062a8.002 8.002 0 0 1 15.876 0H20ZM6.76 14.784l1.06-1.696a5.972 5.972 0 0 0 3.18.91 5.973 5.973 0 0 0 3.18-.91l1.06 1.696A7.963 7.963 0 0 1 11 16a7.963 7.963 0 0 1-4.24-1.215Z"/></symbol><symbol viewBox="0 0 24 24" id="timelapse" xmlns="http://www.w3.org/2000/svg"><path d="M16.24 7.762A5.974 5.974 0 0 0 12 6.002v6l-4.24 4.24c2.34 2.34 6.14 2.34 8.49 0a5.99 5.99 0 0 0-.01-8.48ZM12 2.002c-5.52 0-10 4.48-10 10s4.48 10 10 10 10-4.48 10-10-4.48-10-10-10Zm0 18c-4.42 0-8-3.58-8-8s3.58-8 8-8 8 3.58 8 8-3.58 8-8 8Z"/></symbol><symbol viewBox="0 0 20 20" id="user" xmlns="http://www.w3.org/2000/svg"><path d="M18.311 16.406a9.637 9.637 0 0 0-4.748-4.158 5.938 5.938 0 1 0-7.125 0 9.637 9.637 0 0 0-4.749 4.158.937.937 0 1 0 1.623.938c1.415-2.447 3.915-3.907 6.688-3.907 2.773 0 5.273 1.46 6.688 3.907a.938.938 0 0 0 1.623-.938ZM5.938 7.5a4.063 4.063 0 1 1 8.125 0 4.063 4.063 0 0 1-8.125 0Z"/></symbol><symbol viewBox="0 0 20 20" id="video" xmlns="http://www.w3.org/2000/svg"><path d="M17.313 3H3.563A1.562 1.562 0 0 0 2 4.563v8.125a1.563 1.563 0 0 0 1.563 1.562h13.75a1.563 1.563 0 0 0 1.562-1.563V4.563A1.563 1.563 0 0 0 17.312 3ZM17 12.375H3.875v-7.5H17v7.5Zm1.875 4.063a.938.938 0 0 1-.938.937h-15a.938.938 0 0 1 0-1.875h15a.938.938 0 0 1 .938.938Zm-10.313-6.25V7.062a.938.938 0 0 1 1.435-.795l2.5 1.563a.937.937 0 0 1 0 1.59l-2.5 1.563a.938.938 0 0 1-1.434-.796Z"/></symbol><symbol viewBox="0 0 22 22" id="view" xmlns="http://www.w3.org/2000/svg"><path d="M11 6.6c3.1 0 5.866 1.704 7.216 4.4-1.35 2.696-4.115 4.4-7.216 4.4-3.1 0-5.866-1.704-7.216-4.4C5.134 8.304 7.899 6.6 11 6.6ZM11 5c-4.09 0-7.585 2.488-9 6 1.415 3.512 4.91 6 9 6s7.584-2.488 9-6c-1.416-3.512-4.91-6-9-6Zm0 4c1.13 0 2.046.896 2.046 2s-.917 2-2.046 2c-1.13 0-2.045-.896-2.045-2S9.87 9 11 9Zm0-1.6c-2.03 0-3.682 1.616-3.682 3.6S8.971 14.6 11 14.6c2.03 0 3.682-1.616 3.682-3.6S13.029 7.4 11 7.4Z"/></symbol></svg>