<?xml version="1.0" encoding="utf-8"?><svg xmlns="http://www.w3.org/2000/svg" xmlns:xlink="http://www.w3.org/1999/xlink"><symbol viewBox="0 0 22 20" id="atm" xmlns="http://www.w3.org/2000/svg"><path fill-rule="evenodd" clip-rule="evenodd" d="m1.641 6.223 15.332-3.486-.213-.94a.498.498 0 0 0-.592-.376L1.799 4.666a.498.498 0 0 0-.375.594c.073.319.144.643.217.963Zm-.127-2.41L16.064.533a1.29 1.29 0 0 1 1.541.977l1.525 6.756h-.911l-.692-3.06L2.196 8.691l.949 4.195.085.372a.277.277 0 0 0 .332.21l.114-.026v.895l-.017.005a1.077 1.077 0 0 1-1.282-.812L.534 5.361A1.262 1.262 0 0 1 .7 4.384c.19-.303.466-.492.812-.57ZM5.29 8.509c-.71 0-1.289.583-1.289 1.295v8.405c0 .712.579 1.292 1.29 1.292h14.918c.71 0 1.291-.582 1.291-1.292V9.803c0-.712-.58-1.295-1.291-1.295H5.29Zm14.605 3.763V10.56a.197.197 0 0 0-.198-.199H15.88a.2.2 0 0 0-.199.199v1.71a.2.2 0 0 0 .199.2h3.817a.2.2 0 0 0 .198-.2Zm-2.814 5.187a.2.2 0 0 1-.2-.199v-.397a.2.2 0 0 1 .2-.2h2.613a.2.2 0 0 1 .198.2v.397a.2.2 0 0 1-.198.199h-2.613Zm-3.647 0a.2.2 0 0 1-.198-.199v-.395c0-.111.09-.199.198-.199h2.616a.2.2 0 0 1 .198.199v.395a.2.2 0 0 1-.198.199h-2.616Zm-3.645 0a.2.2 0 0 1-.198-.199v-.395c0-.111.09-.199.198-.199h2.616a.2.2 0 0 1 .198.199v.395a.2.2 0 0 1-.198.199H9.789Zm-3.644 0a.2.2 0 0 1-.198-.199v-.395c0-.111.09-.199.198-.199H8.76a.2.2 0 0 1 .199.199v.395a.2.2 0 0 1-.199.199H6.145Z"/></symbol><symbol viewBox="0 0 20 20" id="close" xmlns="http://www.w3.org/2000/svg"><path d="M19.867 19.073a.556.556 0 0 0-.06-.06l-9.023-9.028L19.812.962a.556.556 0 1 0-.787-.787l-9.022 9.029L.98.175a.556.556 0 1 0-.786.787l9.028 9.023-9.028 9.022a.554.554 0 1 0 .78.781l9.029-9.022 9.022 9.028a.554.554 0 0 0 .842-.72Z"/></symbol><symbol viewBox="0 0 23 21" id="down" xmlns="http://www.w3.org/2000/svg"><path d="M6.445 8.267a1.112 1.112 0 1 1 1.573-1.574l2.544 2.546V2.3a1.11 1.11 0 1 1 2.222 0v6.94l2.546-2.547a1.112 1.112 0 1 1 1.573 1.574l-4.442 4.442a1.11 1.11 0 0 1-1.574 0L6.445 8.267Zm14.113 2.546h-3.332a1.11 1.11 0 1 0 0 2.22h2.962v5.183H3.157v-5.182H6.12a1.11 1.11 0 0 0 0-2.222H2.788a1.851 1.851 0 0 0-1.85 1.852v5.923a1.851 1.851 0 0 0 1.85 1.85h17.77a1.85 1.85 0 0 0 1.85-1.85v-5.923a1.851 1.851 0 0 0-1.85-1.851Zm-1.851 4.812a1.48 1.48 0 1 0-2.962 0 1.48 1.48 0 0 0 2.962 0Z"/></symbol><symbol viewBox="0 0 22 22" id="edit" xmlns="http://www.w3.org/2000/svg"><path d="m5.415 12.617.051-.107c.214-.43.55-.782.964-1.004l.103-.053c.405-.213.405-.817 0-1.035l-.103-.053a2.286 2.286 0 0 1-.964-1.004l-.05-.106a.548.548 0 0 0-.995 0l-.05.106c-.214.431-.551.782-.965 1.004l-.102.053c-.405.213-.405.817 0 1.035l.102.053c.414.222.751.573.964 1.004l.051.107a.548.548 0 0 0 .994 0ZM17.627 16.192l-.103-.054a2.286 2.286 0 0 1-.964-1.004l-.05-.106a.548.548 0 0 0-.995 0l-.05.106c-.214.431-.551.782-.965 1.004l-.102.053c-.405.214-.405.818 0 1.035l.102.053c.414.223.75.573.964 1.004l.051.107a.548.548 0 0 0 .994 0l.051-.107c.213-.43.55-.781.964-1.004l.103-.053c.405-.213.405-.817 0-1.034ZM5.74 7.06l.136.072c.426.226.768.582.985 1.026l.068.142c.235.48.704.777 1.22.777A1.37 1.37 0 0 0 9.373 8.3l.069-.142c.217-.444.558-.8.985-1.026l.136-.071c.461-.244.747-.733.747-1.27a1.44 1.44 0 0 0-.747-1.275l-.136-.07a2.293 2.293 0 0 1-.985-1.027l-.069-.142A1.36 1.36 0 0 0 8.15 2.5c-.52 0-.985.298-1.224.777l-.068.142c-.218.444-.559.8-.985 1.026l-.137.071a1.43 1.43 0 0 0-.746 1.275c0 .542.285 1.026.746 1.274l.004-.004Zm.58-1.358.136-.071A3.585 3.585 0 0 0 8 4.023l.068-.142s.026-.053.081-.053c.056 0 .077.035.081.053l.069.142a3.585 3.585 0 0 0 1.544 1.608l.136.07s.051.028.051.085c0 .058-.038.08-.051.085l-.136.07c-.67.356-1.203.911-1.544 1.608l-.069.142s-.025.054-.08.054a.082.082 0 0 1-.082-.054L8 7.55a3.585 3.585 0 0 0-1.544-1.607l-.137-.071s-.05-.027-.05-.085c0-.057.038-.08.05-.084ZM18.48 6.115l-.828-.862a1.718 1.718 0 0 0-1.245-.537c-.47 0-.913.191-1.246.537l-8.859 9.224-.012.022a.691.691 0 0 0-.124.191v.01l-1.233 3.06a1.29 1.29 0 0 0 .269 1.38 1.177 1.177 0 0 0 1.33.253l2.88-1.314.017-.009a.636.636 0 0 0 .175-.124c.004-.005.012-.01.021-.014l8.859-9.224c.333-.346.516-.808.516-1.296 0-.489-.183-.95-.516-1.297h-.004ZM9.169 16.52l-1.51-1.572 6.636-6.91 1.51 1.572-6.636 6.91Zm8.406-8.753-.865.901-1.51-1.572.866-.901a.478.478 0 0 1 .682 0l.827.861a.515.515 0 0 1 0 .711Z"/></symbol><symbol viewBox="0 0 22 22" id="file" xmlns="http://www.w3.org/2000/svg"><path d="M14.578 3.5c.602 0 1.09.477 1.09 1.064v3.784h2.243c.59 0 1.072.46 1.089 1.034v5.13c0 2.202-1.827 3.988-4.081 3.988H7.08C4.827 18.5 3 16.714 3 14.511V4.564C3 3.977 3.488 3.5 4.09 3.5h10.488Zm-.323 1.38H4.412v9.631c0 1.427 1.172 2.585 2.625 2.608h7.882c1.474 0 2.669-1.167 2.669-2.608V9.728h-1.922l.001 4.305c0 .381-.316.69-.706.69a.699.699 0 0 1-.706-.664V4.88Zm-2.733 8.463c.39 0 .706.31.706.69a.698.698 0 0 1-.68.69H7.261a.698.698 0 0 1-.706-.69c0-.372.302-.676.68-.69h4.287Zm0-3.033c.39 0 .706.309.706.69a.697.697 0 0 1-.68.69H7.261a.698.698 0 0 1-.706-.69c0-.373.302-.676.68-.69h4.287Zm0-3.033c.39 0 .706.309.706.69a.698.698 0 0 1-.68.69H7.261a.698.698 0 0 1-.706-.69c0-.373.302-.676.68-.69h4.287Z"/></symbol><symbol viewBox="0 0 21 22" id="file-slide" xmlns="http://www.w3.org/2000/svg"><path d="M9.857 12.926a1.16 1.16 0 0 0-1.933 0l-1.45 2.172-.647-.975a1.16 1.16 0 0 0-1.94.017L.185 19.9a1.16 1.16 0 0 0 .975 1.788h12.37a1.16 1.16 0 0 0 .967-1.804l-4.639-6.958Zm-6.571 6.442 1.594-2.484.633.948a1.16 1.16 0 0 0 1.933 0l1.45-2.172 2.467 3.708H3.286ZM19.762 6.564 14.35 1.152a1.16 1.16 0 0 0-.82-.34H4.252a1.933 1.933 0 0 0-1.933 1.933v8.118a1.16 1.16 0 1 0 2.32 0V3.132h7.344V7.77a1.16 1.16 0 0 0 1.16 1.16h4.64v10.437a1.16 1.16 0 1 0 0 2.32h.386a1.933 1.933 0 0 0 1.933-1.933V7.385a1.16 1.16 0 0 0-.34-.821Zm-5.46-2.176 2.224 2.223h-2.223V4.388Z"/></symbol><symbol viewBox="0 0 20 20" id="filter" xmlns="http://www.w3.org/2000/svg"><path d="M1.467 15.333c0 .294.24.534.533.534h2.187a2.668 2.668 0 0 0 5.226 0H18a.535.535 0 0 0 0-1.067H9.413a2.668 2.668 0 0 0-5.226 0H2a.535.535 0 0 0-.533.533Zm3.733 0a1.6 1.6 0 1 1 3.2 0 1.6 1.6 0 0 1-3.2 0ZM11.6 10a1.6 1.6 0 1 1 3.2 0 1.6 1.6 0 0 1-3.2 0Zm1.6-2.667c-1.29 0-2.367.917-2.613 2.134H2a.535.535 0 0 0-.533.533c0 .293.24.533.533.533h8.587a2.668 2.668 0 0 0 5.226 0H18c.293 0 .533-.24.533-.533A.535.535 0 0 0 18 9.467h-2.187A2.668 2.668 0 0 0 13.2 7.333ZM7.867 6.267a1.6 1.6 0 1 1 0-3.2 1.6 1.6 0 0 1 0 3.2Zm2.613-2.134a2.668 2.668 0 0 0-5.227 0H2a.535.535 0 0 0-.533.534c0 .293.24.533.533.533h3.253a2.668 2.668 0 0 0 5.227 0H18c.293 0 .533-.24.533-.533A.535.535 0 0 0 18 4.133h-7.52Z"/></symbol><symbol viewBox="0 0 20 20" id="hat" xmlns="http://www.w3.org/2000/svg"><g clip-path="url(#ha)"><path d="m19.515 6.054-9.063-5a.938.938 0 0 0-.906 0l-9.062 5a.937.937 0 0 0 0 1.64l1.703.938v3.732c0 .384.14.754.397 1.04 1.058 1.182 3.43 3.159 7.415 3.159a10.695 10.695 0 0 0 3.125-.45v2.012a.937.937 0 1 0 1.875 0v-2.803a9.338 9.338 0 0 0 2.415-1.915c.257-.285.398-.656.398-1.04V8.636l1.703-.938a.937.937 0 0 0 0-1.64v-.004ZM9.999 2.946l7.122 3.93-2.59 1.43a.153.153 0 0 1-.015-.01l-4.062-2.242a.937.937 0 0 0-.906 1.64l3.047 1.68-2.596 1.431-7.122-3.93L10 2.946Zm0 11.742c-3.158 0-5.05-1.49-5.937-2.443V9.667l5.484 3.026a.938.938 0 0 0 .906 0l2.672-1.47v2.908a8.631 8.631 0 0 1-3.125.557Zm5.938-2.443c-.288.308-.601.59-.938.844v-2.902l.938-.517v2.575Z"/></g><defs><clipPath id="ha"><path d="M0 0h20v20H0z"/></clipPath></defs></symbol><symbol viewBox="0 0 22 22" id="home" xmlns="http://www.w3.org/2000/svg"><path d="M18.332 18.301V8.171l-7.333-4.475-7.334 4.475V18.3h3.667v-2.563A3.76 3.76 0 0 1 8.406 13.1a3.636 3.636 0 0 1 2.593-1.092c.972 0 1.905.393 2.592 1.092a3.76 3.76 0 0 1 1.074 2.637V18.3h3.667Zm-5.5 1.864v-4.427a1.88 1.88 0 0 0-.537-1.319A1.818 1.818 0 0 0 11 13.873c-.487 0-.953.197-1.297.546a1.88 1.88 0 0 0-.537 1.319v4.427h-5.5c-.486 0-.952-.196-1.296-.546a1.88 1.88 0 0 1-.537-1.318V8.171c0-.322.082-.639.238-.919.156-.28.38-.514.652-.68l7.333-4.474a1.81 1.81 0 0 1 1.887 0l7.333 4.474c.272.166.496.4.652.68.156.28.238.597.238.919V18.3c0 .495-.193.969-.537 1.318-.343.35-.81.546-1.296.546h-5.5Z"/></symbol><symbol viewBox="0 0 20 20" id="info" xmlns="http://www.w3.org/2000/svg"><path d="M10 20C4.477 20 0 15.523 0 10S4.477 0 10 0s10 4.477 10 10-4.477 10-10 10ZM9 9v6h2V9H9Zm0-4v2h2V5H9Z"/></symbol><symbol viewBox="0 0 22 22" id="like" xmlns="http://www.w3.org/2000/svg"><path d="M6.417 20.167h-2.75a1.833 1.833 0 0 1-1.834-1.834v-6.416a1.833 1.833 0 0 1 1.834-1.834h2.75m6.416-1.833V4.583a2.75 2.75 0 0 0-2.75-2.75l-3.666 8.25v10.084h10.34a1.833 1.833 0 0 0 1.833-1.559l1.265-8.25a1.833 1.833 0 0 0-1.833-2.108h-5.189Z"/></symbol><symbol viewBox="0 0 16 22" id="look" xmlns="http://www.w3.org/2000/svg"><g clip-path="url(#la)"><path fill-rule="evenodd" clip-rule="evenodd" d="M14.075 9.12h-.666V5.651C13.41 2.544 10.976 0 8 0 5.025 0 2.59 2.544 2.59 5.652v3.467h-.666C.866 9.12 0 10.024 0 11.13v8.861C0 21.096.866 22 1.924 22h12.151C15.133 22 16 21.096 16 19.99L16 11.13c0-1.106-.866-2.01-1.925-2.01ZM4.993 5.651C4.993 3.924 6.347 2.51 8 2.51c1.654 0 3.007 1.413 3.007 3.14V9.12H4.993V5.652Zm3.817 9.763v2.598c0 .466-.363.847-.81.847-.445 0-.81-.38-.81-.847v-2.598a1.701 1.701 0 0 1-.808-1.463c0-.935.724-1.691 1.618-1.691.895 0 1.619.756 1.619 1.69 0 .625-.326 1.172-.809 1.464Z"/></g><defs><clipPath id="la"><path d="M0 0h16v22H0z"/></clipPath></defs></symbol><symbol viewBox="0 0 20 20" id="menu" xmlns="http://www.w3.org/2000/svg"><path d="M17.813 10a.938.938 0 0 1-.938.938H3.125a.938.938 0 0 1 0-1.876h13.75a.937.937 0 0 1 .938.938ZM3.124 5.937h13.75a.937.937 0 0 0 0-1.875H3.125a.937.937 0 1 0 0 1.875Zm13.75 8.125H3.125a.938.938 0 0 0 0 1.876h13.75a.938.938 0 0 0 0-1.876Z"/></symbol><symbol viewBox="0 0 10 18" id="next" xmlns="http://www.w3.org/2000/svg"><path d="M.453 17.297a1.124 1.124 0 0 1 0-1.594l6.702-6.702L.453 2.297A1.127 1.127 0 1 1 2.047.703l7.5 7.5a1.125 1.125 0 0 1 0 1.594l-7.5 7.5a1.125 1.125 0 0 1-1.594 0Z"/></symbol><symbol viewBox="0 0 16 17" id="notifi" xmlns="http://www.w3.org/2000/svg"><path d="m15.129 9.606-1.267-4.558a6.214 6.214 0 0 0-12.053.316l-.98 4.41a3.333 3.333 0 0 0 3.253 4.057h.743a3.333 3.333 0 0 0 6.533 0h.56a3.334 3.334 0 0 0 3.211-4.225Zm-7.037 5.558a2 2 0 0 1-1.878-1.333H9.97a2 2 0 0 1-1.877 1.333Zm5.417-3.456a1.986 1.986 0 0 1-1.593.79H4.082a2 2 0 0 1-1.952-2.434l.98-4.411a4.88 4.88 0 0 1 9.467-.248l1.267 4.557a1.985 1.985 0 0 1-.335 1.746Z"/></symbol><symbol viewBox="0 0 22 22" id="play" xmlns="http://www.w3.org/2000/svg"><path d="M11.004 17.22c-.505 0-4.937-.008-6.207-.353a2.789 2.789 0 0 1-1.943-1.918 21.354 21.354 0 0 1-.354-3.945c0-1.261.11-2.557.337-3.818.252-1.018.992-1.784 1.951-2.053 1.279-.345 5.711-.353 6.216-.353.497 0 4.93.008 6.182.32A2.801 2.801 0 0 1 19.155 7.1c.008.017.008.034.008.06.227 1.278.345 2.573.337 3.86.008 1.262-.11 2.54-.337 3.793-.252 1.018-.992 1.784-1.951 2.053-1.27.345-5.703.353-6.208.353Zm0-10.758c-1.808 0-4.98.076-5.77.286a1.11 1.11 0 0 0-.757.782 19.789 19.789 0 0 0-.286 3.483 19.51 19.51 0 0 0 .303 3.566c.084.286.378.572.748.673.791.21 3.954.294 5.762.294 1.809 0 4.98-.075 5.77-.294a1.11 1.11 0 0 0 .757-.782c.194-1.102.303-2.28.295-3.449a19.084 19.084 0 0 0-.303-3.533c-.101-.37-.387-.656-.757-.765-.774-.193-3.945-.26-5.762-.26Z"/><path d="M9.44 14.133a.76.76 0 0 1-.42-.118.84.84 0 0 1-.42-.723v-4.55c0-.303.159-.58.42-.724a.836.836 0 0 1 .84 0l4.005 2.28c.26.151.429.429.429.732 0 .302-.16.58-.43.731l-4.003 2.28c-.135.05-.278.092-.42.092Zm.303-4.903v3.566l3.13-1.783-3.13-1.783Z"/></symbol><symbol viewBox="0 0 10 18" id="prev" xmlns="http://www.w3.org/2000/svg"><path d="M9.547.703a1.125 1.125 0 0 1 0 1.594L2.845 8.999l6.702 6.704a1.127 1.127 0 0 1-1.594 1.594l-7.5-7.5a1.125 1.125 0 0 1 0-1.594l7.5-7.5a1.125 1.125 0 0 1 1.594 0Z"/></symbol><symbol viewBox="0 0 22 22" id="reply" xmlns="http://www.w3.org/2000/svg"><path d="M8.25 12.834 3.668 8.25l4.584-4.583"/><path d="M18.334 18.334v-6.417a3.667 3.667 0 0 0-3.667-3.667h-11"/></symbol><symbol viewBox="0 0 18 22" id="security" xmlns="http://www.w3.org/2000/svg"><path d="M17.244 3.566h-.046c-2.964 0-5.836-1.25-7.85-3.427-.186-.185-.533-.185-.695 0a10.744 10.744 0 0 1-7.85 3.427H.755a.49.49 0 0 0-.486.487v5.256c0 4.331 2.153 8.36 5.743 10.769l2.71 1.83c.069.046.161.092.277.092a.405.405 0 0 0 .278-.093l2.71-1.83A12.957 12.957 0 0 0 17.73 9.31V4.03a.501.501 0 0 0-.487-.463ZM9 15.794a5.01 5.01 0 0 1-5.002-5.002A5.01 5.01 0 0 1 9 5.789a5.01 5.01 0 0 1 5.002 5.003A5.01 5.01 0 0 1 9 15.794Z"/><path d="m10.459 8.661-2.154 2.362-.764-.833a.874.874 0 0 0-1.227-.047.874.874 0 0 0-.047 1.227L7.68 12.9a.841.841 0 0 0 .649.278.841.841 0 0 0 .648-.278l2.802-3.057a.874.874 0 0 0-.046-1.227c-.394-.324-.927-.301-1.274.046Z"/></symbol><symbol viewBox="0 0 20 20" id="student" xmlns="http://www.w3.org/2000/svg"><path d="m17.796 4.11-7.5-2.5a.926.926 0 0 0-.592 0l-7.5 2.5a.937.937 0 0 0-.642.89v6.25a.937.937 0 0 0 1.875 0V6.3l1.853.618a5.306 5.306 0 0 0 1.439 6.64 7.84 7.84 0 0 0-3.135 2.805.937.937 0 1 0 1.57 1.024c1.115-1.716 2.883-2.7 4.836-2.7 1.953 0 3.721.984 4.84 2.7a.938.938 0 1 0 1.57-1.024 7.842 7.842 0 0 0-3.139-2.807 5.306 5.306 0 0 0 1.44-6.64l3.085-1.03a.938.938 0 0 0 0-1.777v.002ZM10 3.487 14.535 5 10 6.512 5.469 5 10 3.486Zm3.438 5.889a3.438 3.438 0 1 1-6.333-1.852l2.599.866c.192.065.4.065.592 0l2.6-.866c.354.552.542 1.195.541 1.852Z"/></symbol><symbol viewBox="0 0 22 22" id="suport" xmlns="http://www.w3.org/2000/svg"><path d="M20 7a2 2 0 0 1 2 2v4a2 2 0 0 1-2 2h-1.062A8.001 8.001 0 0 1 11 22v-2a6 6 0 0 0 6-6V8A6 6 0 1 0 5 8v7H2a2 2 0 0 1-2-2V9a2 2 0 0 1 2-2h1.062a8.002 8.002 0 0 1 15.876 0H20ZM6.76 14.784l1.06-1.696a5.972 5.972 0 0 0 3.18.91 5.973 5.973 0 0 0 3.18-.91l1.06 1.696A7.963 7.963 0 0 1 11 16a7.963 7.963 0 0 1-4.24-1.215Z"/></symbol><symbol viewBox="0 0 20 20" id="user" xmlns="http://www.w3.org/2000/svg"><path d="M18.311 16.406a9.637 9.637 0 0 0-4.748-4.158 5.938 5.938 0 1 0-7.125 0 9.637 9.637 0 0 0-4.749 4.158.937.937 0 1 0 1.623.938c1.415-2.447 3.915-3.907 6.688-3.907 2.773 0 5.273 1.46 6.688 3.907a.938.938 0 0 0 1.623-.938ZM5.938 7.5a4.063 4.063 0 1 1 8.125 0 4.063 4.063 0 0 1-8.125 0Z"/></symbol><symbol viewBox="0 0 20 20" id="video" xmlns="http://www.w3.org/2000/svg"><path d="M17.313 3H3.563A1.562 1.562 0 0 0 2 4.563v8.125a1.563 1.563 0 0 0 1.563 1.562h13.75a1.563 1.563 0 0 0 1.562-1.563V4.563A1.563 1.563 0 0 0 17.312 3ZM17 12.375H3.875v-7.5H17v7.5Zm1.875 4.063a.938.938 0 0 1-.938.937h-15a.938.938 0 0 1 0-1.875h15a.938.938 0 0 1 .938.938Zm-10.313-6.25V7.062a.938.938 0 0 1 1.435-.795l2.5 1.563a.937.937 0 0 1 0 1.59l-2.5 1.563a.938.938 0 0 1-1.434-.796Z"/></symbol><symbol viewBox="0 0 22 22" id="view" xmlns="http://www.w3.org/2000/svg"><path d="M11 6.6c3.1 0 5.866 1.704 7.216 4.4-1.35 2.696-4.115 4.4-7.216 4.4-3.1 0-5.866-1.704-7.216-4.4C5.134 8.304 7.899 6.6 11 6.6ZM11 5c-4.09 0-7.585 2.488-9 6 1.415 3.512 4.91 6 9 6s7.584-2.488 9-6c-1.416-3.512-4.91-6-9-6Zm0 4c1.13 0 2.046.896 2.046 2s-.917 2-2.046 2c-1.13 0-2.045-.896-2.045-2S9.87 9 11 9Zm0-1.6c-2.03 0-3.682 1.616-3.682 3.6S8.971 14.6 11 14.6c2.03 0 3.682-1.616 3.682-3.6S13.029 7.4 11 7.4Z"/></symbol></svg>