<?xml version="1.0" encoding="utf-8"?><svg xmlns="http://www.w3.org/2000/svg" xmlns:xlink="http://www.w3.org/1999/xlink"><symbol viewBox="0 0 890 1024" id="user" xmlns="http://www.w3.org/2000/svg"><path d="M55.652 957.217v-55.652A389.572 389.572 0 0 1 169.753 626.1a389.538 389.538 0 0 1 126.384-84.444A389.501 389.501 0 0 1 445.217 512a389.499 389.499 0 0 1 149.081 29.656 389.538 389.538 0 0 1 210.828 210.828 389.499 389.499 0 0 1 29.656 149.081v55.652M445.212 512a222.603 222.603 0 0 0 157.407-65.202 222.601 222.601 0 0 0 0-314.815 222.606 222.606 0 0 0-380.015 157.408A222.609 222.609 0 0 0 445.212 512z"/></symbol></svg>