<svg width="22" height="22" viewBox="0 0 22 22" fill="none" xmlns="http://www.w3.org/2000/svg">
<path d="M6.41674 20.1667H3.66674C3.18051 20.1667 2.7142 19.9736 2.37038 19.6298C2.02656 19.286 1.83341 18.8196 1.83341 18.3334V11.9167C1.83341 11.4305 2.02656 10.9642 2.37038 10.6204C2.7142 10.2766 3.18051 10.0834 3.66674 10.0834H6.41674M12.8334 8.25007V4.58341C12.8334 3.85406 12.5437 3.15459 12.028 2.63886C11.5122 2.12314 10.8128 1.83341 10.0834 1.83341L6.41674 10.0834V20.1667H16.7567C17.1989 20.1717 17.6279 20.0168 17.9648 19.7304C18.3017 19.444 18.5238 19.0456 18.5901 18.6084L19.8551 10.3584C19.895 10.0957 19.8772 9.82737 19.8031 9.57214C19.729 9.31691 19.6003 9.08084 19.4259 8.8803C19.2516 8.67975 19.0356 8.51951 18.7932 8.41069C18.5507 8.30187 18.2875 8.24706 18.0217 8.25007H12.8334Z" stroke="#656867" stroke-width="1.5" stroke-linecap="round" stroke-linejoin="round"/>
</svg>
